<svg width="24" height="24" viewBox="0 0 24 24" fill="none" xmlns="http://www.w3.org/2000/svg">
<path d="M5.07167 8.0001C5.80935 6.72238 6.88601 5.67355 8.1826 4.96956C9.47919 4.26557 10.9452 3.93385 12.4186 4.01106C13.8919 4.08828 15.3152 4.57142 16.5311 5.40709C17.747 6.24275 18.7081 7.39838 19.3082 8.74621M3.23169 5.51546L3.9611 8.675C4.08534 9.21313 4.62229 9.54866 5.16042 9.42443L8.31996 8.69501M18.9281 16C18.1904 17.2777 17.1138 18.3265 15.8172 19.0305C14.5206 19.7345 13.0546 20.0662 11.5812 19.989C10.1079 19.9118 8.68456 19.4287 7.46866 18.593C6.25276 17.7573 5.29164 16.6017 4.69155 15.2539M20.7681 18.4846L20.0387 15.3251C19.9144 14.787 19.3775 14.4514 18.8394 14.5757L15.6798 15.3051" stroke="#CDCDCD" stroke-width="1.5" stroke-linecap="round"/>
</svg>
