<svg width="24" height="24" viewBox="0 0 24 24" fill="none" xmlns="http://www.w3.org/2000/svg">
<path d="M16 8L18 8C20.2091 8 22 9.79086 22 12L22 17C22 19.2091 20.2091 21 18 21L17 21L12 21L7 21L6 21C3.79086 21 2 19.2091 2 17L2 12C2 9.79086 3.79086 8 6 8L8 8" stroke="#717171" stroke-width="1.5" stroke-linecap="round"/>
<path d="M15 5L12.7071 2.70711C12.3166 2.31658 11.6834 2.31658 11.2929 2.70711L9 5" stroke="#CDCDCD" stroke-width="1.5" stroke-linecap="round"/>
<path d="M12 3L12 15" stroke="#CDCDCD" stroke-width="1.5" stroke-linecap="round"/>
</svg>
