<svg width="119" height="119" viewBox="0 0 119 119" fill="none" xmlns="http://www.w3.org/2000/svg">
<g clip-path="url(#clip0_475_1310)">
<path d="M117 22.2857H22.2857V1.85714C22.2857 1.3646 22.09 0.892226 21.7418 0.543945C21.3935 0.195663 20.9211 0 20.4286 0L13 0C9.55219 0 6.24558 1.36964 3.80761 3.80761C1.36964 6.24558 0 9.55219 0 13L0 105.857C0 109.305 1.36964 112.612 3.80761 115.05C6.24558 117.488 9.55219 118.857 13 118.857H117C117.493 118.857 117.965 118.661 118.313 118.313C118.661 117.965 118.857 117.493 118.857 117V24.1429C118.857 23.6503 118.661 23.1779 118.313 22.8297C117.965 22.4814 117.493 22.2857 117 22.2857ZM3.71429 13C3.71429 10.5373 4.6926 8.17542 6.43401 6.43401C8.17542 4.6926 10.5373 3.71429 13 3.71429H18.5714V92.8571C12.4986 92.8571 8.19 92.2257 3.71429 96.7757V13ZM115.143 115.143H13C11.1626 115.142 9.36667 114.597 7.83944 113.575C6.3122 112.554 5.12235 111.102 4.42047 109.404C3.71859 107.706 3.53624 105.838 3.8965 104.036C4.25676 102.235 5.14343 100.58 6.44429 99.2829C12.22 93.4514 22.2857 99.2829 22.2857 94.7143V26H115.143V115.143Z" fill="#E6E6E6" fill-opacity="0.5"/>
<path d="M113.285 -2.94271e-05H42.7139C42.1196 -2.94271e-05 42.491 -0.111458 36.0096 3.13854C30.7167 5.77568 29.7139 5.88711 29.7139 7.42854C29.7139 8.96997 30.6982 9.06283 36.0096 11.7185C42.5282 14.9871 42.1196 14.8571 42.7139 14.8571H113.285C114.763 14.8571 116.18 14.2701 117.225 13.2253C118.27 12.1804 118.857 10.7633 118.857 9.28568V5.5714C118.857 4.09376 118.27 2.67665 117.225 1.6318C116.18 0.586959 114.763 -2.94271e-05 113.285 -2.94271e-05ZM94.7139 3.71426V11.1428H45.9082C46.5959 8.71439 46.5959 6.1427 45.9082 3.71426H94.7139ZM38.9996 9.02568C39.1296 7.96489 39.1296 6.89219 38.9996 5.8314L42.2867 4.19711C42.9836 6.29505 42.9836 8.56203 42.2867 10.66L38.9996 9.02568ZM98.4282 3.71426H102.142V11.1428H98.4282V3.71426ZM115.142 9.28568C115.142 9.77823 114.947 10.2506 114.598 10.5989C114.25 10.9472 113.778 11.1428 113.285 11.1428H105.857V3.71426H113.285C113.778 3.71426 114.25 3.90992 114.598 4.2582C114.947 4.60648 115.142 5.07885 115.142 5.5714V9.28568Z" fill="#E6E6E6" fill-opacity="0.5"/>
<path d="M31.571 53.8571H42.7139V70.5714C42.7139 71.064 42.9095 71.5363 43.2578 71.8846C43.6061 72.2329 44.0785 72.4286 44.571 72.4286H66.8567V96.5714C66.8567 97.064 67.0524 97.5363 67.4007 97.8846C67.7489 98.2329 68.2213 98.4286 68.7139 98.4286H77.9996V104C77.9996 104.493 78.1952 104.965 78.5435 105.313C78.8918 105.661 79.3642 105.857 79.8567 105.857H105.857C106.349 105.857 106.822 105.661 107.17 105.313C107.518 104.965 107.714 104.493 107.714 104V89.1428C107.714 88.6503 107.518 88.1779 107.17 87.8296C106.822 87.4814 106.349 87.2857 105.857 87.2857H79.8567C79.3642 87.2857 78.8918 87.4814 78.5435 87.8296C78.1952 88.1779 77.9996 88.6503 77.9996 89.1428V94.7143H70.571V72.4286H77.9996V78C77.9996 78.4925 78.1952 78.9649 78.5435 79.3132C78.8918 79.6615 79.3642 79.8571 79.8567 79.8571H105.857C106.349 79.8571 106.822 79.6615 107.17 79.3132C107.518 78.9649 107.714 78.4925 107.714 78V63.1428C107.714 62.6503 107.518 62.1779 107.17 61.8296C106.822 61.4814 106.349 61.2857 105.857 61.2857H79.8567C79.3642 61.2857 78.8918 61.4814 78.5435 61.8296C78.1952 62.1779 77.9996 62.6503 77.9996 63.1428V68.7143H70.571V46.4286H77.9996V52C77.9996 52.4925 78.1952 52.9649 78.5435 53.3132C78.8918 53.6615 79.3642 53.8571 79.8567 53.8571H105.857C106.349 53.8571 106.822 53.6615 107.17 53.3132C107.518 52.9649 107.714 52.4925 107.714 52V37.1428C107.714 36.6503 107.518 36.1779 107.17 35.8296C106.822 35.4814 106.349 35.2857 105.857 35.2857H79.8567C79.3642 35.2857 78.8918 35.4814 78.5435 35.8296C78.1952 36.1779 77.9996 36.6503 77.9996 37.1428V42.7143H68.7139C68.2213 42.7143 67.7489 42.9099 67.4007 43.2582C67.0524 43.6065 66.8567 44.0789 66.8567 44.5714V68.7143H46.4282V53.8571H57.571C58.0636 53.8571 58.5359 53.6615 58.8842 53.3132C59.2325 52.9649 59.4282 52.4925 59.4282 52V37.1428C59.4282 36.6503 59.2325 36.1779 58.8842 35.8296C58.5359 35.4814 58.0636 35.2857 57.571 35.2857H31.571C31.0785 35.2857 30.6061 35.4814 30.2578 35.8296C29.9095 36.1779 29.7139 36.6503 29.7139 37.1428V52C29.7139 52.4925 29.9095 52.9649 30.2578 53.3132C30.6061 53.6615 31.0785 53.8571 31.571 53.8571ZM81.7139 91H104V102.143H81.7139V91ZM81.7139 65H104V76.1428H81.7139V65ZM81.7139 39H104V50.1428H81.7139V39ZM33.4282 39H55.7139V50.1428H33.4282V39Z" fill="#E6E6E6" fill-opacity="0.5"/>
</g>
<defs>
<clipPath id="clip0_475_1310">
<rect width="118.857" height="118.857" fill="white"/>
</clipPath>
</defs>
</svg>
