<svg xmlns="http://www.w3.org/2000/svg" viewBox="0 0 16 16" fill="currentColor">
  <mask id="cut">
    <rect x="0" y="0" width="16" height="16" fill="white"/>
    <circle cx="10.4" cy="10.4" r="5.655" fill="black"/>
  </mask>
  <g fill="none" stroke="currentColor" stroke-width="1.05">
    <circle cx="5.6" cy="5.6" r="4.5" mask="url(#cut)"/>
    <circle cx="10.4" cy="10.4" r="4.5"/>
  </g>
  <g transform="matrix(0.00637,0,0,-0.00637,3.5485,7.8235)"><path d="M347 -12Q280 -12 226.0 11.5Q172 35 134.0 81.5Q96 128 75.5 195.0Q55 262 55 349Q55 436 75.5 503.0Q96 570 134.0 616.0Q172 662 226.0 686.0Q280 710 347 710Q439 710 494.0 671.0Q549 632 582 571L498 514Q477 562 439.5 589.0Q402 616 347 616Q280 616 236.5 576.0Q193 536 179 469H423V392H174V306H423V229H179Q193 160 236.5 121.0Q280 82 347 82Q404 82 443.0 111.0Q482 140 505 191L589 132Q574 103 552.5 76.5Q531 50 501.5 30.5Q472 11 434.0 -0.5Q396 -12 347 -12Z" fill="currentColor"/></g>
  <g transform="matrix(0.00603,0,0,-0.00603,8.6174,12.5053)"><path d="M261 -82V4Q185 10 133.0 41.0Q81 72 43 117L116 183Q147 145 183.5 122.0Q220 99 268 93V317Q160 340 112.0 386.5Q64 433 64 509Q64 589 117.0 636.0Q170 683 261 693V780H346V693Q410 687 457.5 661.0Q505 635 540 590L466 529Q444 558 413.5 577.5Q383 597 340 604V399Q399 386 438.0 368.0Q477 350 501.5 327.5Q526 305 537.0 275.5Q548 246 548 207Q548 126 495.5 72.0Q443 18 346 6V-82ZM443 200Q443 238 421.0 262.5Q399 287 340 302V94Q389 102 416.0 130.0Q443 158 443 200ZM168 514Q168 472 192.5 450.5Q217 429 268 415V605Q220 598 194.0 575.0Q168 552 168 514Z" fill="currentColor"/></g>
</svg>
