<svg xmlns="http://www.w3.org/2000/svg" viewBox="-40 -40 380 380"
     fill="none" stroke="currentColor" stroke-width="18"
     stroke-linejoin="round" stroke-linecap="round">
  <g transform="translate(0,302) scale(1,-1)">
    <path d="M2 258Q-2 244 2.0 229.5Q6 215 16.5 204.0Q27 193 41.5 189.5Q56 186 71 189L190 72Q186 59 188.5 46.0Q191 33 199.0 22.5Q207 12 218.5 6.0Q230 0 244 0Q260 0 274.0 9.0Q288 18 295.0 33.0Q302 48 299.5 64.5Q297 81 286.0 93.5Q275 106 259.5 110.5Q244 115 228 110L111 229Q114 244 110.5 258.5Q107 273 96.0 283.5Q85 294 70.5 298.0Q56 302 42 298L82 258L75 225L42 218ZM253 89H263L268 80L276 75L277 65L281 56L277 47L276 38L268 32L263 24L253 23L244 19L235 23L225 24L220 32L211 38V47L206 56L211 65V75L220 80L225 89H235L244 94Z"/>
  </g>
</svg>
