<?xml version="1.0" encoding="UTF-8"?>
<svg id="Layer_1" data-name="Layer 1" xmlns="http://www.w3.org/2000/svg" viewBox="0 0 1500 500">
  <defs>
    <style>
      .cls-1 {
        fill: #ccc;
      }
    </style>
  </defs>
  <polygon class="cls-1" points="190.55 88.73 132 88.73 132 407.55 347.59 407.55 347.59 352.72 190.55 352.72 190.55 88.73"/>
  <path class="cls-1" d="M714.74,187.9l-.92-1.05c-19.4-22.12-45.34-33.33-77.09-33.33-34.11,0-63.69,12.61-87.94,37.48-24.23,24.86-36.52,55.53-36.52,91.17s12.29,65.61,36.51,90.93c24.24,25.34,53.83,38.19,87.95,38.19,31.49,0,57.43-11.1,77.09-32.99l.92-1.02v30.29h56.69V157.7h-56.69v30.2Zm-19.1,148.55c-14.82,15.12-32.92,22.8-53.79,22.8s-39.74-7.59-54.25-22.56c-14.53-14.99-21.9-33.33-21.9-54.52s7.45-39.15,22.13-54.29c14.67-15.12,32.84-22.79,54.02-22.79s38.96,7.67,53.79,22.79c14.84,15.15,22.36,33.42,22.36,54.29s-7.52,39.14-22.36,54.29Z"/>
  <path class="cls-1" d="M1029.58,181.14c-20.53-18.33-45.39-27.63-73.89-27.63-30.53,0-55.52,11.03-74.29,32.79l-.93,1.07v-29.67h-56.69v249.85h56.69v-128.65c0-20.61,6.13-38.03,18.22-51.79,12.04-13.7,27.77-20.64,46.75-20.64,16.24,0,30.2,5.64,41.47,16.77,11.27,11.12,16.99,26.56,16.99,45.89v138.42h56.69V254.7c0-30.42-10.44-55.17-31.02-73.56Z"/>
  <path class="cls-1" d="M1311.31,157.24v30.2l-.92-1.05c-19.4-22.12-45.34-33.33-77.09-33.33-34.11,0-63.69,12.61-87.94,37.48-24.23,24.86-36.52,55.53-36.52,91.17s12.29,65.61,36.51,90.93c24.24,25.34,53.83,38.19,87.95,38.19,31.49,0,57.43-11.1,77.09-32.99l.92-1.02v30.29h56.69V157.24h-56.69Zm-19.1,178.74c-14.82,15.12-32.92,22.8-53.79,22.8s-39.73-7.59-54.25-22.56c-14.53-14.98-21.9-33.33-21.9-54.52s7.45-39.15,22.13-54.29c14.67-15.12,32.84-22.79,54.02-22.79s38.96,7.67,53.79,22.79c14.84,15.15,22.36,33.42,22.36,54.29s-7.52,39.14-22.36,54.29Z"/>
  <path class="cls-1" d="M404.05,157.7v249.85h56.69V157.7h-48.12c-.35,0-.39-.51-.05-.57,27.26-4.11,48.16-27.64,48.16-56.05v-12.36h-56.69v68.98Z"/>
</svg>