<?xml version="1.0" encoding="UTF-8"?>
<svg id="Layer_1" data-name="Layer 1" xmlns="http://www.w3.org/2000/svg" viewBox="0 0 1000 1200">
  <defs>
    <style>
      .cls-1 {
        fill: #0f6;
      }
    </style>
  </defs>
  <path class="cls-1" d="M835.91,732.42c-1.78,39.98-10.53,78.78-26.08,115.54-16.93,40.04-41.18,76-72.07,106.89-30.89,30.89-66.85,55.13-106.89,72.07-36.76,15.55-75.56,24.3-115.54,26.08,1.78-39.98,10.53-78.78,26.08-115.54,16.93-40.04,41.18-76,72.07-106.89,30.89-30.89,66.85-55.13,106.89-72.07,36.76-15.55,75.56-24.3,115.54-26.08m15.34-15.34h0c-193.99,0-351.25,157.26-351.25,351.25,193.99,0,351.25-157.26,351.25-351.25h0Z"/>
  <path class="cls-1" d="M485,146.99V717.08c0,45.4-8.89,89.43-26.42,130.88-16.93,40.04-41.18,76-72.07,106.89-30.89,30.89-66.85,55.13-106.89,72.07-36.86,15.59-75.78,24.35-115.88,26.09V482.92c0-45.4,8.89-89.43,26.42-130.88,16.93-40.04,41.18-76,72.07-106.89,30.89-30.89,66.85-55.13,106.89-72.07,36.86-15.59,75.78-24.35,115.88-26.09m15-15.33h0c-193.99,0-351.25,157.26-351.25,351.25v585.42h0c193.99,0,351.25-157.26,351.25-351.25V131.67h0Z"/>
</svg>