<svg xmlns="http://www.w3.org/2000/svg" fill="none" viewBox="0 0 237 29"><path fill="#fff" d="M7.053 27.696 0 9.407h4.395l4.712 13.408 4.926-13.408h4.003l4.853 13.335L27.6 9.407h4.322l-7.016 18.29h-4.003l-4.926-13.618-4.926 13.617H7.049h.004ZM34.392 6.969V2.298h4.711v4.67h-4.711Zm.461 20.728V9.407h3.861v18.29h-3.86ZM42.495 27.696v-2.83l9.638-11.71h-9.496V9.408h14.952v2.795l-9.6 11.745h9.851v3.75H42.495ZM77.007 24.336v3.36H73.57v-2.228c-1.298 1.767-3.261 2.653-5.882 2.653-1.818 0-3.367-.548-4.643-1.644-1.276-1.096-1.912-2.515-1.912-4.261s.633-3.201 1.894-4.297c1.265-1.096 2.818-1.645 4.66-1.645h5.458v-3.288H62.41V9.415h14.6v14.928l-.004-.007Zm-8.326.744c1.156 0 2.193-.265 3.101-.795.91-.53 1.364-1.314 1.364-2.352v-2.795H68.68c-.967 0-1.803.276-2.497.831-.698.556-1.047 1.281-1.047 2.174s.349 1.612 1.047 2.142c.698.53 1.53.795 2.497.795ZM80.827 27.696V9.407h9.71v3.996h-5.845v14.29H80.83l-.004.003ZM112.285 27.697h-3.861v-3.22c-1.534 2.428-3.803 3.644-6.802 3.644-2.741 0-4.977-.925-6.715-2.776-1.737-1.851-2.603-4.12-2.603-6.81 0-2.689.873-4.928 2.622-6.79 1.748-1.862 3.98-2.795 6.696-2.795 2.999 0 5.268 1.216 6.802 3.644V0h3.861v27.697ZM98.023 22.71c1.145 1.11 2.592 1.662 4.341 1.662 1.748 0 3.195-.555 4.341-1.662 1.145-1.107 1.719-2.501 1.719-4.174 0-1.674-.578-3.067-1.738-4.174-1.156-1.107-2.599-1.662-4.322-1.662-1.723 0-3.196.559-4.341 1.68s-1.72 2.504-1.72 4.156c0 1.651.571 3.067 1.72 4.174ZM124.107 28.121c-2.126 0-3.904-.512-5.333-1.539-1.429-1.027-2.145-2.424-2.145-4.192h3.861c0 .777.331 1.405.993 1.873.661.472 1.559.708 2.693.708 1.04 0 1.891-.19 2.553-.567.661-.377.992-.918.992-1.626 0-.587-.265-1.085-.796-1.484-.531-.4-1.2-.7-2.003-.904-.804-.2-1.676-.446-2.622-.744a25.162 25.162 0 0 1-2.621-.973 4.889 4.889 0 0 1-2.003-1.625c-.531-.73-.796-1.616-.796-2.654 0-1.745.669-3.088 2.003-4.032s3.065-1.415 5.192-1.415c2.126 0 3.81.5 5.191 1.502 1.382 1.002 2.072 2.352 2.072 4.05h-3.861c0-.729-.309-1.313-.919-1.752-.615-.436-1.455-.654-2.516-.654-.993 0-1.785.182-2.374.548-.593.367-.887.868-.887 1.503 0 .755.371 1.343 1.116 1.768.745.424 1.647.762 2.712 1.008 1.062.247 2.127.53 3.188.85a6.14 6.14 0 0 1 2.712 1.644c.746.777 1.116 1.793 1.116 3.041 0 1.793-.698 3.184-2.09 4.174-1.392.991-3.203 1.485-5.42 1.485l-.008.007ZM150.098 24.336v3.36h-3.436v-2.228c-1.298 1.767-3.261 2.653-5.882 2.653-1.818 0-3.366-.548-4.642-1.644-1.276-1.096-1.913-2.515-1.913-4.261s.633-3.201 1.894-4.297c1.266-1.096 2.818-1.645 4.661-1.645h5.457v-3.288h-10.736V9.415h14.6v14.928l-.003-.007Zm-8.325.744c1.156 0 2.192-.265 3.101-.795.908-.53 1.363-1.314 1.363-2.352v-2.795h-4.464c-.967 0-1.804.276-2.498.831-.698.556-1.047 1.281-1.047 2.174s.349 1.612 1.047 2.142c.698.53 1.531.795 2.498.795ZM153.693 27.696V9.407h9.71v3.996h-5.846v14.29h-3.86l-.004.003ZM185.165 27.697h-3.86v-3.22c-1.535 2.428-3.803 3.644-6.802 3.644-2.742 0-4.977-.925-6.715-2.776-1.738-1.851-2.603-4.12-2.603-6.81 0-2.689.872-4.928 2.621-6.79s3.981-2.795 6.697-2.795c2.999 0 5.267 1.216 6.802 3.644V0h3.86v27.697Zm-14.262-4.987c1.146 1.11 2.593 1.662 4.341 1.662 1.749 0 3.196-.555 4.341-1.662 1.145-1.107 1.72-2.501 1.72-4.174 0-1.674-.579-3.067-1.738-4.174-1.156-1.107-2.6-1.662-4.323-1.662-1.723 0-3.195.559-4.341 1.68-1.145 1.121-1.719 2.504-1.719 4.156 0 1.651.571 3.067 1.719 4.174ZM188.535 6.969V2.298h4.712v4.67h-4.712Zm.462 20.728V9.407h3.861v18.29h-3.861ZM206.927 8.947c2.243 0 4.057.667 5.439 2 1.381 1.331 2.072 3.084 2.072 5.251v11.498h-3.861V17.472c0-1.437-.443-2.595-1.33-3.466s-2.073-1.31-3.563-1.31c-1.491 0-2.81.435-3.756 1.31-.945.871-1.417 2.05-1.417 3.539v10.151h-3.861V9.407h3.791v2.795c1.418-2.17 3.578-3.255 6.486-3.255ZM236.996 18.568v1.274h-15.323c.251 1.463.883 2.643 1.898 3.539 1.014.896 2.275 1.343 3.78 1.343.706 0 1.367-.095 1.985-.283.615-.189 1.113-.414 1.487-.672a6.64 6.64 0 0 0 .993-.83c.283-.295.48-.53.581-.709.102-.178.164-.3.19-.37l3.66.85a10.433 10.433 0 0 1-.992 1.593c-.389.519-.931 1.092-1.625 1.717-.694.624-1.589 1.132-2.687 1.52-1.094.389-2.316.585-3.661.585-2.759 0-5.06-.897-6.907-2.69-1.847-1.793-2.77-4.09-2.77-6.9 0-2.809.927-5.044 2.788-6.863 1.858-1.814 4.155-2.725 6.893-2.725 2.738 0 5.068.914 6.926 2.74 1.857 1.829 2.788 4.12 2.788 6.881h-.004Zm-15.323-1.379h11.321c-.204-1.437-.836-2.606-1.898-3.502-1.062-.897-2.33-1.343-3.814-1.343-1.392 0-2.606.432-3.642 1.292-1.036.86-1.695 2.047-1.967 3.553Z"/></svg>