<svg xmlns="http://www.w3.org/2000/svg" fill="none" viewBox="0 0 306 83"><path fill="#E6E6E6" d="M91.99 22.927h-6.7V59.35h24.676v-6.264H91.991v-30.16ZM151.991 34.258l-.106-.121c-2.221-2.528-5.189-3.808-8.825-3.808-3.904 0-7.29 1.44-10.066 4.282-2.774 2.84-4.181 6.344-4.181 10.416s1.407 7.495 4.18 10.388c2.774 2.894 6.161 4.361 10.065 4.361 3.605 0 6.574-1.267 8.825-3.768l.104-.115v3.46h6.488V30.807h-6.488v3.45h.004Zm-2.186 16.97c-1.698 1.729-3.769 2.605-6.157 2.605s-4.549-.866-6.209-2.577c-1.662-1.712-2.506-3.807-2.506-6.229 0-2.421.852-4.473 2.534-6.201 1.679-1.729 3.758-2.604 6.183-2.604 2.424 0 4.459.877 6.156 2.604 1.699 1.732 2.559 3.818 2.559 6.201 0 2.384-.862 4.473-2.559 6.201h-.001ZM188.027 33.485c-2.35-2.094-5.195-3.156-8.458-3.156-3.493 0-6.355 1.26-8.503 3.745l-.106.122v-3.389h-6.488v28.545h6.488V44.653c0-2.353.702-4.345 2.086-5.916 1.377-1.565 3.179-2.359 5.351-2.359 1.86 0 3.457.645 4.748 1.915 1.291 1.27 1.944 3.034 1.944 5.242V59.35h6.488V41.888c0-3.475-1.195-6.304-3.55-8.405v.002ZM220.274 30.754v3.45l-.106-.12c-2.22-2.527-5.188-3.808-8.824-3.808-3.904 0-7.291 1.441-10.066 4.283-2.774 2.84-4.181 6.343-4.181 10.416 0 4.072 1.407 7.494 4.179 10.387 2.774 2.895 6.162 4.362 10.066 4.362 3.604 0 6.574-1.267 8.825-3.768l.104-.116v3.46h6.488V30.755h-6.488.003Zm-2.186 20.421c-1.697 1.729-3.768 2.606-6.156 2.606s-4.547-.867-6.209-2.577c-1.664-1.712-2.508-3.808-2.508-6.23 0-2.421.852-4.472 2.534-6.2 1.679-1.73 3.759-2.604 6.183-2.604s4.459.877 6.156 2.603c1.699 1.732 2.559 3.818 2.559 6.201 0 2.384-.862 4.473-2.559 6.201ZM116.429 30.807V59.35h6.488V30.807h-5.509c-.039 0-.044-.06-.005-.065 3.121-.47 5.514-3.157 5.514-6.403v-1.412h-6.488v7.88ZM40.991 66.272c10.34 0 18.725-8.368 18.725-18.689-10.341 0-18.725 8.368-18.725 18.689ZM40.991 16.432c-10.34 0-18.724 8.368-18.724 18.689v31.15c10.34 0 18.724-8.369 18.724-18.69v-31.15Z"/><path fill="#0F6" d="M276.816 59.236c-1.212 0-2.3-.199-3.261-.596a7.179 7.179 0 0 1-2.415-1.725c-.648-.752-1.15-1.651-1.505-2.697-.356-1.066-.533-2.258-.533-3.575 0-1.296.167-2.467.501-3.512.356-1.045.858-1.934 1.506-2.666a6.36 6.36 0 0 1 2.383-1.725c.941-.418 2.007-.627 3.199-.627 1.275 0 2.383.22 3.324.659.941.439 1.714 1.035 2.321 1.787.606.753 1.055 1.631 1.348 2.635.314.982.47 2.038.47 3.167v1.317h-10.882v.408c0 1.192.335 2.153 1.004 2.885.669.71 1.662 1.066 2.979 1.066 1.004 0 1.819-.209 2.446-.627a6.933 6.933 0 0 0 1.725-1.6l2.164 2.415c-.669.941-1.589 1.683-2.76 2.227-1.15.523-2.488.784-4.014.784Zm-.063-14.112c-1.066 0-1.913.355-2.54 1.066-.627.71-.941 1.63-.941 2.76v.25h6.712v-.282c0-1.129-.283-2.038-.847-2.728-.544-.71-1.338-1.066-2.384-1.066ZM263.703 58.858c-1.38 0-2.435-.355-3.167-1.066-.711-.732-1.066-1.766-1.066-3.104v-9h-2.415v-3.2h1.254c.607 0 1.014-.136 1.223-.407.23-.293.345-.722.345-1.286v-2.791h3.607v4.484h3.355v3.2h-3.355v9.972h3.104v3.199h-2.885ZM251.932 40.105c-.836 0-1.443-.188-1.819-.564-.355-.377-.533-.857-.533-1.443v-.627c0-.585.178-1.066.533-1.443.376-.376.983-.564 1.819-.564.815 0 1.411.188 1.787.564.377.377.565.858.565 1.443v.627c0 .586-.188 1.066-.565 1.443-.376.376-.972.564-1.787.564Zm-2.007 2.384h4.014v16.37h-4.014v-16.37ZM244.721 58.859c-1.38 0-2.394-.345-3.042-1.035-.648-.69-.972-1.662-.972-2.916V35.651h4.014V55.66h2.164v3.199h-2.164Z"/></svg>