<svg width="319" height="45" viewBox="0 0 319 45" fill="none" xmlns="http://www.w3.org/2000/svg">
<path d="M159.926 36.5486V9.74158" stroke="#00BDFF" stroke-width="0.582762"/>
<path d="M176.674 10.0345H184.961C187.339 10.0345 189.157 10.3259 190.416 10.9086C191.698 11.4681 192.584 12.2373 193.073 13.2164C193.563 14.1721 193.808 15.2444 193.808 16.4332C193.808 17.5754 193.54 18.6011 193.003 19.5102C192.491 20.4193 191.581 21.1769 190.276 21.783C191.954 22.4123 193.085 23.2632 193.668 24.3355C194.274 25.4077 194.577 26.55 194.577 27.7621C194.577 29.1141 194.285 30.3379 193.703 31.4335C193.143 32.5291 192.211 33.4032 190.905 34.0559C189.6 34.6853 187.828 35 185.591 35H176.674V10.0345ZM191.36 27.867C191.36 26.3984 190.917 25.2795 190.031 24.5103C189.169 23.7177 187.735 23.3215 185.731 23.3215H179.821V32.3426H185.486C187.024 32.3426 188.213 32.1678 189.052 31.8181C189.915 31.4452 190.509 30.9207 190.836 30.2447C191.185 29.5687 191.36 28.7761 191.36 27.867ZM190.661 16.5381C190.661 15.1861 190.218 14.2071 189.332 13.601C188.469 12.9949 186.978 12.6919 184.856 12.6919H179.821V20.5941H185.381C187.246 20.5941 188.586 20.2561 189.402 19.5801C190.241 18.8808 190.661 17.8668 190.661 16.5381ZM198.242 28.916V16.9227H201.285V28.3216C201.285 29.9999 201.564 31.1887 202.124 31.8881C202.683 32.5874 203.569 32.937 204.781 32.937C206.156 32.937 207.38 32.4475 208.452 31.4685C209.035 30.9556 209.478 30.4195 209.781 29.86C210.084 29.2773 210.236 28.5313 210.236 27.6222V16.9227H213.278V35H210.271V32.2027C209.408 33.3683 208.452 34.2191 207.404 34.7552C206.378 35.2914 205.271 35.5595 204.082 35.5595C202.03 35.5595 200.539 35 199.606 33.8811C198.697 32.7622 198.242 31.1072 198.242 28.916ZM229.206 30.2447C229.206 29.522 229.008 28.9043 228.612 28.3915C228.216 27.8787 227.341 27.5173 225.989 27.3075L223.682 26.9579C221.654 26.6315 220.104 26.0954 219.031 25.3495C217.959 24.5802 217.423 23.3564 217.423 21.6781C217.423 20.5592 217.738 19.6034 218.367 18.8109C218.996 18.0183 219.847 17.4123 220.919 16.9927C222.015 16.5731 223.239 16.3633 224.591 16.3633C226.339 16.3633 227.714 16.5847 228.717 17.0276C229.719 17.4705 230.465 18.0649 230.955 18.8109C231.444 19.5568 231.794 20.3843 232.004 21.2934L229.241 21.748C228.915 20.769 228.449 20.0347 227.843 19.5452C227.237 19.0323 226.188 18.7759 224.696 18.7759C223.017 18.7759 221.863 19.0556 221.234 19.6151C220.628 20.1745 220.325 20.7923 220.325 21.4683C220.325 22.2142 220.546 22.8086 220.989 23.2515C221.432 23.6711 222.353 23.9975 223.752 24.2306L226.374 24.6502C228.495 24.9998 230.01 25.6059 230.92 26.4684C231.852 27.3309 232.318 28.5896 232.318 30.2447C232.318 31.7598 231.712 33.0303 230.5 34.0559C229.288 35.0583 227.47 35.5595 225.045 35.5595C223.6 35.5595 222.283 35.373 221.094 35C219.905 34.627 218.938 34.0093 218.192 33.1468C217.469 32.2843 217.062 31.1421 216.968 29.7202H219.905C220.115 30.9789 220.64 31.8647 221.479 32.3776C222.341 32.8671 223.507 33.1119 224.975 33.1119C226.514 33.1119 227.598 32.8554 228.227 32.3426C228.88 31.8065 229.206 31.1072 229.206 30.2447ZM236.285 16.9227H239.327V35H236.285V16.9227ZM236.216 10.0345H239.327V13.566H236.216V10.0345ZM244.069 16.9227H247.076V19.685C248.009 18.4962 248.999 17.6454 250.048 17.1325C251.121 16.6197 252.239 16.3633 253.405 16.3633C255.456 16.3633 256.971 16.9344 257.951 18.0766C258.953 19.1955 259.454 20.8272 259.454 22.9718V35H256.412V23.5662C256.412 21.8879 256.097 20.7107 255.468 20.0347C254.862 19.3354 253.941 18.9857 252.706 18.9857C252.053 18.9857 251.389 19.1023 250.713 19.3354C250.037 19.5685 249.431 19.9414 248.894 20.4543C248.312 20.9671 247.869 21.5149 247.566 22.0977C247.263 22.6571 247.111 23.3914 247.111 24.3005V35H244.069V16.9227ZM263.416 26.0837C263.416 23.9858 263.777 22.2142 264.5 20.769C265.246 19.3237 266.26 18.2281 267.542 17.4822C268.824 16.7363 270.293 16.3633 271.948 16.3633C273.813 16.3633 275.328 16.7479 276.493 17.5172C277.659 18.2631 278.521 19.3004 279.081 20.6291C279.64 21.9578 279.92 23.473 279.92 25.1746V26.7131H266.493C266.586 28.6712 267.087 30.233 267.997 31.3985C268.929 32.5407 270.246 33.1119 271.948 33.1119C273.463 33.1119 274.57 32.8321 275.269 32.2727C275.992 31.6899 276.47 30.909 276.703 29.93H279.64C279.337 31.6549 278.556 33.0303 277.297 34.0559C276.062 35.0583 274.279 35.5595 271.948 35.5595C269.22 35.5595 267.111 34.7203 265.619 33.0419C264.15 31.3636 263.416 29.0442 263.416 26.0837ZM267.262 21.5732C266.889 22.4357 266.656 23.3914 266.563 24.4404H276.843C276.75 22.5988 276.353 21.1886 275.654 20.2095C274.978 19.2072 273.731 18.706 271.913 18.706C270.677 18.706 269.687 18.9624 268.941 19.4752C268.195 19.9881 267.635 20.6874 267.262 21.5732ZM295.211 30.2447C295.211 29.522 295.013 28.9043 294.616 28.3915C294.22 27.8787 293.346 27.5173 291.994 27.3075L289.686 26.9579C287.658 26.6315 286.108 26.0954 285.036 25.3495C283.964 24.5802 283.427 23.3564 283.427 21.6781C283.427 20.5592 283.742 19.6034 284.371 18.8109C285.001 18.0183 285.852 17.4123 286.924 16.9927C288.02 16.5731 289.243 16.3633 290.595 16.3633C292.344 16.3633 293.719 16.5847 294.721 17.0276C295.724 17.4705 296.47 18.0649 296.959 18.8109C297.449 19.5568 297.798 20.3843 298.008 21.2934L295.246 21.748C294.919 20.769 294.453 20.0347 293.847 19.5452C293.241 19.0323 292.192 18.7759 290.7 18.7759C289.022 18.7759 287.868 19.0556 287.239 19.6151C286.633 20.1745 286.33 20.7923 286.33 21.4683C286.33 22.2142 286.551 22.8086 286.994 23.2515C287.437 23.6711 288.358 23.9975 289.756 24.2306L292.379 24.6502C294.5 24.9998 296.015 25.6059 296.924 26.4684C297.857 27.3309 298.323 28.5896 298.323 30.2447C298.323 31.7598 297.717 33.0303 296.505 34.0559C295.292 35.0583 293.474 35.5595 291.05 35.5595C289.605 35.5595 288.288 35.373 287.099 35C285.91 34.627 284.943 34.0093 284.197 33.1468C283.474 32.2843 283.066 31.1421 282.973 29.7202H285.91C286.12 30.9789 286.644 31.8647 287.483 32.3776C288.346 32.8671 289.511 33.1119 290.98 33.1119C292.518 33.1119 293.602 32.8554 294.232 32.3426C294.884 31.8065 295.211 31.1072 295.211 30.2447ZM313.479 30.2447C313.479 29.522 313.281 28.9043 312.885 28.3915C312.488 27.8787 311.614 27.5173 310.262 27.3075L307.954 26.9579C305.926 26.6315 304.376 26.0954 303.304 25.3495C302.232 24.5802 301.696 23.3564 301.696 21.6781C301.696 20.5592 302.01 19.6034 302.64 18.8109C303.269 18.0183 304.12 17.4123 305.192 16.9927C306.288 16.5731 307.512 16.3633 308.864 16.3633C310.612 16.3633 311.987 16.5847 312.99 17.0276C313.992 17.4705 314.738 18.0649 315.227 18.8109C315.717 19.5568 316.067 20.3843 316.276 21.2934L313.514 21.748C313.188 20.769 312.721 20.0347 312.115 19.5452C311.509 19.0323 310.46 18.7759 308.968 18.7759C307.29 18.7759 306.136 19.0556 305.507 19.6151C304.901 20.1745 304.598 20.7923 304.598 21.4683C304.598 22.2142 304.819 22.8086 305.262 23.2515C305.705 23.6711 306.626 23.9975 308.024 24.2306L310.647 24.6502C312.768 24.9998 314.283 25.6059 315.192 26.4684C316.125 27.3309 316.591 28.5896 316.591 30.2447C316.591 31.7598 315.985 33.0303 314.773 34.0559C313.561 35.0583 311.742 35.5595 309.318 35.5595C307.873 35.5595 306.556 35.373 305.367 35C304.178 34.627 303.211 34.0093 302.465 33.1468C301.742 32.2843 301.334 31.1421 301.241 29.7202H304.178C304.388 30.9789 304.912 31.8647 305.752 32.3776C306.614 32.8671 307.78 33.1119 309.248 33.1119C310.787 33.1119 311.871 32.8554 312.5 32.3426C313.153 31.8065 313.479 31.1072 313.479 30.2447Z" fill="#00BDFF"/>
<path d="M44.7461 4.21973H49.5629V30.9505H65.1816L64.5735 35.2069H44.7461V4.21973Z" fill="#475569"/>
<path d="M68.8945 13.3604C71.4908 13.3604 73.5954 15.4651 73.5954 18.0613V35.0368H68.8945V13.3604Z" fill="#475569"/>
<path d="M77.8203 28.995C77.8203 27.4928 78.1422 26.2528 78.7741 25.2871C79.406 24.3213 80.2764 23.5583 81.3613 23.0098C82.4463 22.4614 83.6624 22.0679 85.0335 21.8176C86.3927 21.5672 87.7996 21.4241 89.2423 21.3645L92.9741 21.2333V20.363C92.9741 18.5984 92.5925 17.3346 91.8414 16.5716C91.0903 15.8085 89.8742 15.4151 88.1931 15.4151C86.512 15.4151 85.3674 15.6893 84.5924 16.2377C83.8055 16.7862 83.3048 17.5492 83.0782 18.5388L78.953 18.1096C79.3583 15.9993 80.3479 14.4493 81.9217 13.4597C83.4955 12.4821 85.6535 11.9813 88.3719 11.9813C91.6387 11.9813 93.9636 12.7444 95.3348 14.2586C96.7059 15.7727 97.3974 17.9308 97.3974 20.7087V35.2067H93.0575V32.2976C92.2229 33.2514 91.1857 34.0622 89.9815 34.7298C88.7653 35.3975 87.275 35.7313 85.5105 35.7313C83.2213 35.7313 81.3733 35.171 79.9545 34.0383C78.5357 32.9057 77.8322 31.2365 77.8322 29.0069L77.8203 28.995ZM82.339 28.8162C82.339 29.8535 82.6609 30.688 83.2928 31.308C83.9247 31.928 84.962 32.238 86.3689 32.238C88.3361 32.238 89.9338 31.7492 91.138 30.7596C92.3422 29.77 92.9621 28.3393 92.9621 26.4674V24.214L89.4926 24.3452C87.6446 24.4048 86.19 24.6194 85.1528 24.9771C84.1155 25.3347 83.3763 25.8355 82.959 26.4793C82.5417 27.1112 82.3271 27.8981 82.3271 28.8281L82.339 28.8162Z" fill="#475569"/>
<path d="M102.893 12.6845H107.364V15.9394C108.496 14.5206 109.701 13.5072 110.988 12.8991C112.276 12.291 113.611 11.993 115.006 11.993C117.522 11.993 119.406 12.6964 120.646 14.1033C121.886 15.5102 122.518 17.537 122.518 20.1958V35.2065H117.999V21.0542C117.999 19.1704 117.653 17.8351 116.962 17.0363C116.27 16.2375 115.209 15.844 113.79 15.844C113.015 15.844 112.24 15.9871 111.465 16.2732C110.69 16.5594 109.999 17.0005 109.355 17.5728C108.723 18.1212 108.234 18.7293 107.9 19.397C107.566 20.0646 107.4 20.8992 107.4 21.9127V35.1946H102.881V12.6845H102.893Z" fill="#475569"/>
<path d="M126.596 28.995C126.596 27.4928 126.918 26.2528 127.55 25.2871C128.181 24.3213 129.052 23.5583 130.137 23.0098C131.222 22.4614 132.438 22.0679 133.809 21.8176C135.168 21.5672 136.575 21.4241 138.018 21.3645L141.749 21.2333V20.363C141.749 18.5984 141.368 17.3346 140.617 16.5716C139.866 15.8085 138.65 15.4151 136.968 15.4151C135.287 15.4151 134.143 15.6893 133.368 16.2377C132.581 16.7862 132.08 17.5492 131.854 18.5388L127.728 18.1096C128.134 15.9993 129.123 14.4493 130.697 13.4597C132.271 12.4821 134.429 11.9813 137.147 11.9813C140.414 11.9813 142.739 12.7444 144.11 14.2586C145.481 15.7727 146.173 17.9308 146.173 20.7087V35.2067H141.833V32.2976C140.998 33.2514 139.961 34.0622 138.757 34.7298C137.541 35.3975 136.05 35.7313 134.286 35.7313C131.997 35.7313 130.149 35.171 128.73 34.0383C127.311 32.9057 126.608 31.2365 126.608 29.0069L126.596 28.995ZM131.114 28.8162C131.114 29.8535 131.436 30.688 132.068 31.308C132.7 31.928 133.737 32.238 135.144 32.238C137.112 32.238 138.709 31.7492 139.913 30.7596C141.118 29.77 141.738 28.3393 141.738 26.4674V24.214L138.268 24.3452C136.42 24.4048 134.965 24.6194 133.928 24.9771C132.891 25.3347 132.152 25.8355 131.734 26.4793C131.317 27.1112 131.102 27.8981 131.102 28.8281L131.114 28.8162Z" fill="#475569"/>
<path d="M68.8945 7.61475H73.5049V8.76734C73.5049 11.3136 71.4408 13.3777 68.8945 13.3777V7.61475Z" fill="#475569"/>
<path d="M14.2585 39.1114C22.1299 39.1114 28.517 32.6433 28.517 24.6722C20.6456 24.6722 14.2585 31.1403 14.2585 39.1114ZM14.2585 0.598755C6.38712 0.598755 0 7.06681 0 15.0379V39.1114C7.87137 39.1114 14.2585 32.6433 14.2585 24.6722V0.598755Z" fill="#475569"/>
</svg>
