<?xml version="1.0" encoding="UTF-8"?>
<svg id="Layer_1" data-name="Layer 1" xmlns="http://www.w3.org/2000/svg" viewBox="0 0 1500 500">
  <defs>
    <style>
      .cls-1 {
        fill: #141414;
      }
    </style>
  </defs>
  <polygon class="cls-1" points="553.74 138.61 513.3 138.61 513.3 358.82 662.21 358.82 662.21 320.95 553.74 320.95 553.74 138.61"/>
  <path class="cls-1" d="M915.8,207.11l-.64-.73c-13.4-15.28-31.31-23.02-53.25-23.02-23.56,0-43.99,8.71-60.74,25.89-16.74,17.17-25.23,38.35-25.23,62.97s8.49,45.31,25.22,62.8c16.74,17.5,37.18,26.37,60.74,26.37,21.75,0,39.67-7.66,53.25-22.78l.63-.7v20.92h39.15V186.25h-39.15v20.86Zm-13.19,102.6c-10.24,10.45-22.74,15.75-37.15,15.75s-27.45-5.24-37.47-15.58c-10.03-10.35-15.12-23.02-15.12-37.66s5.14-27.04,15.29-37.49c10.13-10.45,22.68-15.74,37.31-15.74s26.91,5.3,37.15,15.74c10.25,10.47,15.44,23.08,15.44,37.49s-5.2,27.04-15.44,37.49Z"/>
  <path class="cls-1" d="M1133.26,202.44c-14.18-12.66-31.35-19.08-51.04-19.08-21.08,0-38.35,7.62-51.31,22.64l-.64,.74v-20.49h-39.15v172.57h39.15v-88.86c0-14.23,4.24-26.27,12.59-35.77,8.31-9.46,19.18-14.26,32.29-14.26,11.22,0,20.86,3.9,28.65,11.58,7.79,7.68,11.73,18.34,11.73,31.69v95.61h39.15v-105.57c0-21.01-7.21-38.11-21.42-50.81Z"/>
  <path class="cls-1" d="M1327.85,185.93v20.86l-.64-.73c-13.4-15.28-31.31-23.02-53.25-23.02-23.56,0-43.99,8.71-60.74,25.89-16.74,17.17-25.23,38.35-25.23,62.97s8.49,45.31,25.22,62.8c16.74,17.5,37.18,26.37,60.74,26.37,21.75,0,39.67-7.66,53.25-22.78l.63-.7v20.92h39.15V185.93h-39.15Zm-13.19,123.46c-10.24,10.45-22.74,15.75-37.15,15.75s-27.44-5.24-37.47-15.58c-10.04-10.35-15.13-23.02-15.13-37.66s5.14-27.04,15.29-37.49c10.13-10.45,22.68-15.74,37.31-15.74s26.91,5.3,37.15,15.74c10.25,10.47,15.44,23.08,15.44,37.49s-5.2,27.04-15.44,37.49Z"/>
  <path class="cls-1" d="M701.21,186.25v172.57h39.15V186.25h-33.24c-.24,0-.27-.36-.03-.39,18.83-2.84,33.27-19.09,33.27-38.71v-8.54h-39.15v47.64Z"/>
  <path class="cls-1" d="M245.99,400.66h0c62.4,0,112.99-50.59,112.99-112.99h0c-62.4,0-112.99,50.59-112.99,112.99Z"/>
  <path class="cls-1" d="M245.99,99.34h0c-62.4,0-112.99,50.59-112.99,112.99v188.32h0c62.4,0,112.99-50.59,112.99-112.99V99.34Z"/>
</svg>