<svg width="24" height="24" viewBox="0 0 24 24" fill="none" xmlns="http://www.w3.org/2000/svg">
<circle cx="3" cy="3" r="3" transform="matrix(-1 0 0 1 15 9)" stroke="#CDCDCD" stroke-width="1.5"/>
<path d="M16.5001 4.9375L16.8751 4.28798V4.28798L16.5001 4.9375ZM16.5001 19.0621L16.1251 18.4126H16.1251L16.5001 19.0621ZM7.50005 19.0621L7.12505 19.7117H7.12505L7.50005 19.0621ZM7.50005 4.9375L7.87505 5.58702V5.58702L7.50005 4.9375ZM8.92299 3.01508L9.65368 3.18415L8.92299 3.01508ZM9.5392 2.30504L9.35522 1.57796L9.5392 2.30504ZM2.90645 9.68351L2.42953 10.2623L2.90645 9.68351ZM5.31189 18.7402L5.13971 18.0102L5.31189 18.7402ZM4.40301 18.503L3.83347 18.991L4.40301 18.503ZM9.53928 21.695L9.72325 20.9679L9.53928 21.695ZM8.92305 20.9848L9.65376 20.8158L8.92305 20.9848ZM15.0771 20.9848L15.8078 21.1538L15.0771 20.9848ZM14.4609 21.695L14.2769 20.9679L14.4609 21.695ZM19.597 18.503L19.0275 18.015L19.597 18.503ZM18.6882 18.7402L18.516 19.4702L18.6882 18.7402ZM21.4437 8.70289L22.1518 8.45569L21.4437 8.70289ZM21.0936 9.68352L20.6167 9.10469L21.0936 9.68352ZM2.90645 14.3165L2.42953 13.7376L2.90645 14.3165ZM18.688 5.2595L18.5159 4.52952L18.688 5.2595ZM19.5968 5.49671L20.1663 5.00871L19.5968 5.49671ZM4.40327 5.49667L3.83376 5.00867L4.40327 5.49667ZM21.0936 14.3165L21.5705 13.7376L21.0936 14.3165ZM21.4437 15.2971L20.7356 15.0499L21.4437 15.2971ZM15.0772 3.01511L15.8079 2.84603L15.0772 3.01511ZM14.3465 3.18418C14.5723 4.16005 15.1879 5.04592 16.1251 5.58702L16.8751 4.28798C16.3127 3.96329 15.9439 3.43381 15.8079 2.84603L14.3465 3.18418ZM16.1251 5.58702C16.986 6.08408 17.9639 6.2008 18.8601 5.98949L18.5159 4.52952C17.9767 4.65663 17.3922 4.5865 16.8751 4.28798L16.1251 5.58702ZM22.1518 8.45569C21.7062 7.17937 21.0272 6.01337 20.1663 5.00871L19.0273 5.98471C19.7687 6.85004 20.3527 7.85328 20.7356 8.95008L22.1518 8.45569ZM20.75 12C20.75 11.3006 21.0682 10.6762 21.5705 10.2624L20.6167 9.10469C19.7834 9.79128 19.25 10.8337 19.25 12H20.75ZM21.5705 13.7376C21.0682 13.3238 20.75 12.6994 20.75 12H19.25C19.25 13.1663 19.7834 14.2087 20.6167 14.8953L21.5705 13.7376ZM20.1666 18.991C21.0273 17.9864 21.7063 16.8205 22.1518 15.5443L20.7356 15.0499C20.3528 16.1466 19.7688 17.1497 19.0275 18.015L20.1666 18.991ZM16.8751 19.7117C17.3922 19.4131 17.9768 19.343 18.516 19.4702L18.8603 18.0102C17.964 17.7988 16.9861 17.9155 16.1251 18.4126L16.8751 19.7117ZM15.8078 21.1538C15.9437 20.566 16.3126 20.0364 16.8751 19.7117L16.1251 18.4126C15.1877 18.9538 14.5721 19.8398 14.3464 20.8158L15.8078 21.1538ZM12 22.75C12.9117 22.75 13.7979 22.6363 14.6448 22.422L14.2769 20.9679C13.5493 21.152 12.7866 21.25 12 21.25V22.75ZM9.3553 22.4221C10.2022 22.6363 11.0883 22.75 12 22.75V21.25C11.2134 21.25 10.4508 21.152 9.72325 20.9679L9.3553 22.4221ZM7.12505 19.7117C7.68749 20.0364 8.05637 20.566 8.19234 21.1538L9.65376 20.8158C9.42802 19.8398 8.81238 18.9538 7.87505 18.4126L7.12505 19.7117ZM5.48407 19.4702C6.02327 19.343 6.60793 19.4131 7.12505 19.7117L7.87505 18.4126C7.01401 17.9155 6.03607 17.7988 5.13971 18.0102L5.48407 19.4702ZM1.84822 15.5443C2.29374 16.8205 2.97273 17.9864 3.83347 18.991L4.97254 18.015C4.23119 17.1498 3.64726 16.1466 3.2644 15.0499L1.84822 15.5443ZM3.25004 12C3.25004 12.6994 2.93185 13.3238 2.42953 13.7376L3.38336 14.8953C4.21668 14.2087 4.75004 13.1663 4.75004 12H3.25004ZM2.42953 10.2623C2.93185 10.6762 3.25004 11.3006 3.25004 12H4.75004C4.75004 10.8337 4.21668 9.79126 3.38336 9.10468L2.42953 10.2623ZM3.83376 5.00867C2.97289 6.01334 2.2938 7.17934 1.84822 8.45567L3.2644 8.95007C3.6473 7.85326 4.23132 6.85001 4.97279 5.98468L3.83376 5.00867ZM7.12505 4.28798C6.60798 4.58651 6.02337 4.65664 5.4842 4.5295L5.13994 5.98946C6.03623 6.20081 7.01409 6.0841 7.87505 5.58702L7.12505 4.28798ZM8.19229 2.84601C8.05629 3.43379 7.68743 3.96329 7.12505 4.28798L7.87505 5.58702C8.81227 5.04591 9.42788 4.16003 9.65368 3.18415L8.19229 2.84601ZM12 1.25C11.0883 1.25 10.2021 1.36366 9.35522 1.57796L9.72318 3.03213C10.4508 2.84802 11.2134 2.75 12 2.75V1.25ZM14.645 1.578C13.798 1.36368 12.9118 1.25 12 1.25V2.75C12.7867 2.75 13.5494 2.84803 14.277 3.03217L14.645 1.578ZM9.65368 3.18415C9.66929 3.11668 9.69574 3.06909 9.71627 3.04413C9.73389 3.02269 9.73703 3.02862 9.72318 3.03213L9.35522 1.57796C8.66401 1.75286 8.30711 2.3498 8.19229 2.84601L9.65368 3.18415ZM3.38336 9.10468C3.32248 9.05451 3.28709 9.00024 3.27289 8.96394C3.26095 8.93341 3.26974 8.93478 3.2644 8.95007L1.84822 8.45567C1.58221 9.21766 1.99436 9.9038 2.42953 10.2623L3.38336 9.10468ZM5.13971 18.0102C5.07248 18.0261 5.01821 18.0235 4.98675 18.0162C4.95969 18.0099 4.96341 18.0044 4.97254 18.015L3.83347 18.991C4.29652 19.5314 4.98849 19.5871 5.48407 19.4702L5.13971 18.0102ZM9.72325 20.9679C9.73711 20.9714 9.73397 20.9773 9.71634 20.9559C9.69581 20.9309 9.66936 20.8833 9.65376 20.8158L8.19234 21.1538C8.30711 21.6501 8.66402 22.2471 9.3553 22.4221L9.72325 20.9679ZM14.3464 20.8158C14.3308 20.8833 14.3043 20.9309 14.2838 20.9559C14.2662 20.9773 14.263 20.9714 14.2769 20.9679L14.6448 22.422C15.3361 22.2471 15.693 21.6501 15.8078 21.1538L14.3464 20.8158ZM19.0275 18.015C19.0366 18.0044 19.0403 18.0099 19.0133 18.0162C18.9818 18.0235 18.9276 18.0261 18.8603 18.0102L18.516 19.4702C19.0116 19.5871 19.7035 19.5314 20.1666 18.991L19.0275 18.015ZM20.7356 8.95008C20.7303 8.93479 20.7391 8.93343 20.7271 8.96395C20.7129 9.00025 20.6775 9.05452 20.6167 9.10469L21.5705 10.2624C22.0057 9.90381 22.4178 9.21767 22.1518 8.45569L20.7356 8.95008ZM3.2644 15.0499C3.26974 15.0652 3.26095 15.0666 3.27289 15.0361C3.28709 14.9998 3.32248 14.9455 3.38336 14.8953L2.42953 13.7376C1.99436 14.0962 1.58221 14.7823 1.84822 15.5443L3.2644 15.0499ZM18.8601 5.98949C18.9273 5.97364 18.9816 5.97624 19.0131 5.98357C19.0401 5.98987 19.0364 5.99537 19.0273 5.98471L20.1663 5.00871C19.7033 4.46835 19.0114 4.41269 18.5159 4.52952L18.8601 5.98949ZM4.97279 5.98468C4.96366 5.99534 4.95994 5.98984 4.98699 5.98354C5.01845 5.97621 5.07271 5.97361 5.13994 5.98946L5.4842 4.5295C4.98867 4.41265 4.29678 4.4683 3.83376 5.00867L4.97279 5.98468ZM20.6167 14.8953C20.6775 14.9455 20.7129 14.9997 20.7271 15.036C20.7391 15.0666 20.7303 15.0652 20.7356 15.0499L22.1518 15.5443C22.4178 14.7823 22.0057 14.0962 21.5705 13.7376L20.6167 14.8953ZM15.8079 2.84603C15.6931 2.34983 15.3362 1.75292 14.645 1.578L14.277 3.03217C14.2631 3.02866 14.2663 3.02273 14.2839 3.04417C14.3044 3.06913 14.3309 3.11672 14.3465 3.18418L15.8079 2.84603Z" fill="#CDCDCD"/>
</svg>
