<svg width="24" height="24" viewBox="0 0 24 24" fill="none" xmlns="http://www.w3.org/2000/svg">
<path d="M17.7189 9.52728L19.8442 10.677L20.2891 10.9269C21.237 11.4595 21.237 12.8325 20.2891 13.365L14.2525 16.7566C12.8524 17.5432 11.1476 17.5432 9.74754 16.7566L3.71092 13.365C2.76302 12.8325 2.76303 11.4595 3.71093 10.9269L4.15585 10.677L6.16334 9.52728M18.1811 14.6461L20.1129 15.6185C21.1092 16.1201 21.1412 17.5398 20.1685 18.0862L14.2525 21.4101C12.8524 22.1966 11.1476 22.1966 9.74754 21.4101L3.9178 18.1347C2.9284 17.5789 2.98291 16.1278 4.0112 15.6487L6.16334 14.6461M14.2525 11.8112L20.2891 8.41961C21.237 7.88705 21.237 6.51405 20.2891 5.98149L14.2525 2.58993C12.8524 1.80336 11.1476 1.80336 9.74754 2.58993L3.71093 5.98149C2.76303 6.51405 2.76302 7.88705 3.71092 8.41961L9.74754 11.8112C11.1476 12.5977 12.8524 12.5977 14.2525 11.8112Z" stroke="#CDCDCD" stroke-width="1.5"/>
</svg>
