<svg width="20" height="23" viewBox="0 0 20 23" fill="none" xmlns="http://www.w3.org/2000/svg">
<path d="M15.7189 9.02728L17.8442 10.177L18.2891 10.4269C19.237 10.9595 19.237 12.3325 18.2891 12.865L12.2525 16.2566C10.8524 17.0432 9.14756 17.0432 7.74754 16.2566L1.71092 12.865C0.763024 12.3325 0.763026 10.9595 1.71093 10.4269L2.15585 10.177L4.16334 9.02728M16.1811 14.1461L18.1129 15.1185C19.1092 15.6201 19.1412 17.0398 18.1685 17.5862L12.2525 20.9101C10.8524 21.6966 9.14756 21.6966 7.74754 20.9101L1.9178 17.6347C0.928395 17.0789 0.982913 15.6278 2.0112 15.1487L4.16334 14.1461M12.2525 11.3112L18.2891 7.91961C19.237 7.38705 19.237 6.01405 18.2891 5.48149L12.2525 2.08993C10.8524 1.30336 9.14756 1.30336 7.74754 2.08993L1.71093 5.48149C0.763027 6.01405 0.763024 7.38705 1.71092 7.91961L7.74754 11.3112C9.14756 12.0977 10.8524 12.0977 12.2525 11.3112Z" stroke="#7A7A7A" stroke-width="1.5"/>
</svg>
