<svg xmlns="http://www.w3.org/2000/svg" viewBox="0 0 32 32"><g fill="none" fill-rule="evenodd"><circle cx="16" cy="16" r="16" fill="#f7931a"/><path fill="#fff" fill-rule="nonzero" d="M23.2 14c.3-2-1.3-3.2-3.5-4l.7-2.8-1.7-.4-.7 2.7-1.4-.3.7-2.8-1.7-.4-.7 2.8-1.1-.2-2.4-.6-.5 1.8 1.3.3q1 .4.8 1l-.8 3.3h.2-.2L11 18.9q-.1.4-.8.4L9 19l-.8 2 2.2.6 1.2.3-.7 2.8 1.7.5.8-2.9 1.3.4-.7 2.8 1.8.4.7-2.8c3 .5 5.1.3 6-2.3.8-2.2 0-3.4-1.5-4.2q1.8-.3 2.2-2.6m-4 5.6c-.5 2.1-4.1 1-5.3.7l1-3.9c1.1.3 4.9 1 4.3 3.2m.6-5.6c-.5 2-3.5 1-4.5.7l.9-3.4c1 .2 4 .7 3.6 2.7"/></g></svg>