<svg width="128" height="29" viewBox="0 0 128 29" fill="none" xmlns="http://www.w3.org/2000/svg">
<path d="M17.2614 11.6562H13.5284C13.4602 11.1733 13.321 10.7443 13.1108 10.3693C12.9006 9.98864 12.6307 9.66477 12.3011 9.39773C11.9716 9.13068 11.5909 8.92614 11.1591 8.78409C10.733 8.64205 10.2699 8.57102 9.76989 8.57102C8.86648 8.57102 8.07955 8.79545 7.40909 9.24432C6.73864 9.6875 6.21875 10.3352 5.84943 11.1875C5.48011 12.0341 5.29545 13.0625 5.29545 14.2727C5.29545 15.517 5.48011 16.5625 5.84943 17.4091C6.22443 18.2557 6.74716 18.8949 7.41761 19.3267C8.08807 19.7585 8.86364 19.9744 9.74432 19.9744C10.2386 19.9744 10.696 19.9091 11.1165 19.7784C11.5426 19.6477 11.9205 19.4574 12.25 19.2074C12.5795 18.9517 12.8523 18.642 13.0682 18.2784C13.2898 17.9148 13.4432 17.5 13.5284 17.0341L17.2614 17.0511C17.1648 17.8523 16.9233 18.625 16.5369 19.3693C16.1563 20.108 15.642 20.7699 14.9943 21.3551C14.3523 21.9347 13.5852 22.3949 12.6932 22.7358C11.8068 23.071 10.804 23.2386 9.68466 23.2386C8.12784 23.2386 6.7358 22.8864 5.50852 22.1818C4.28693 21.4773 3.32102 20.4574 2.6108 19.1222C1.90625 17.7869 1.55398 16.1705 1.55398 14.2727C1.55398 12.3693 1.91193 10.75 2.62784 9.41477C3.34375 8.07955 4.31534 7.0625 5.54261 6.36364C6.76989 5.65909 8.15057 5.30682 9.68466 5.30682C10.696 5.30682 11.6335 5.44886 12.4972 5.73295C13.3665 6.01705 14.1364 6.43182 14.8068 6.97727C15.4773 7.51704 16.0227 8.17898 16.4432 8.96307C16.8693 9.74716 17.142 10.6449 17.2614 11.6562ZM35.9474 14.2727C35.9474 16.1761 35.5866 17.7955 34.8651 19.1307C34.1491 20.4659 33.1719 21.4858 31.9332 22.1903C30.7003 22.8892 29.3139 23.2386 27.7741 23.2386C26.223 23.2386 24.831 22.8864 23.598 22.1818C22.3651 21.4773 21.3906 20.4574 20.6747 19.1222C19.9588 17.7869 19.6009 16.1705 19.6009 14.2727C19.6009 12.3693 19.9588 10.75 20.6747 9.41477C21.3906 8.07955 22.3651 7.0625 23.598 6.36364C24.831 5.65909 26.223 5.30682 27.7741 5.30682C29.3139 5.30682 30.7003 5.65909 31.9332 6.36364C33.1719 7.0625 34.1491 8.07955 34.8651 9.41477C35.5866 10.75 35.9474 12.3693 35.9474 14.2727ZM32.206 14.2727C32.206 13.0398 32.0213 12 31.652 11.1534C31.2884 10.3068 30.7741 9.66477 30.1094 9.22727C29.4446 8.78977 28.6662 8.57102 27.7741 8.57102C26.8821 8.57102 26.1037 8.78977 25.4389 9.22727C24.7741 9.66477 24.2571 10.3068 23.8878 11.1534C23.5241 12 23.3423 13.0398 23.3423 14.2727C23.3423 15.5057 23.5241 16.5455 23.8878 17.392C24.2571 18.2386 24.7741 18.8807 25.4389 19.3182C26.1037 19.7557 26.8821 19.9744 27.7741 19.9744C28.6662 19.9744 29.4446 19.7557 30.1094 19.3182C30.7741 18.8807 31.2884 18.2386 31.652 17.392C32.0213 16.5455 32.206 15.5057 32.206 14.2727ZM42.3714 5.54545V23H38.6811V5.54545H42.3714ZM60.0071 5.54545V23H56.8196L49.2259 12.0142H49.098V23H45.4077V5.54545H48.6463L56.1804 16.5227H56.3338V5.54545H60.0071Z" fill="#FFF2E2"/>
<path d="M78.4567 11.6562H74.7237C74.6555 11.1733 74.5163 10.7443 74.3061 10.3693C74.0959 9.98864 73.826 9.66477 73.4964 9.39773C73.1669 9.13068 72.7862 8.92614 72.3544 8.78409C71.9283 8.64205 71.4652 8.57102 70.9652 8.57102C70.0618 8.57102 69.2749 8.79545 68.6044 9.24432C67.9339 9.6875 67.4141 10.3352 67.0447 11.1875C66.6754 12.0341 66.4908 13.0625 66.4908 14.2727C66.4908 15.517 66.6754 16.5625 67.0447 17.4091C67.4197 18.2557 67.9425 18.8949 68.6129 19.3267C69.2834 19.7585 70.0589 19.9744 70.9396 19.9744C71.4339 19.9744 71.8913 19.9091 72.3118 19.7784C72.7379 19.6477 73.1158 19.4574 73.4453 19.2074C73.7749 18.9517 74.0476 18.642 74.2635 18.2784C74.4851 17.9148 74.6385 17.5 74.7237 17.0341L78.4567 17.0511C78.3601 17.8523 78.1186 18.625 77.7322 19.3693C77.3516 20.108 76.8374 20.7699 76.1896 21.3551C75.5476 21.9347 74.7805 22.3949 73.8885 22.7358C73.0021 23.071 71.9993 23.2386 70.88 23.2386C69.3232 23.2386 67.9311 22.8864 66.7038 22.1818C65.4822 21.4773 64.5163 20.4574 63.8061 19.1222C63.1016 17.7869 62.7493 16.1705 62.7493 14.2727C62.7493 12.3693 63.1072 10.75 63.8232 9.41477C64.5391 8.07955 65.5107 7.0625 66.7379 6.36364C67.9652 5.65909 69.3459 5.30682 70.88 5.30682C71.8913 5.30682 72.8288 5.44886 73.6925 5.73295C74.5618 6.01705 75.3317 6.43182 76.0021 6.97727C76.6726 7.51704 77.218 8.17898 77.6385 8.96307C78.0646 9.74716 78.3374 10.6449 78.4567 11.6562ZM91.8842 5.54545H95.5746V16.8807C95.5746 18.1534 95.2706 19.267 94.6626 20.2216C94.0604 21.1761 93.2166 21.9205 92.1314 22.4545C91.0462 22.983 89.782 23.2472 88.3388 23.2472C86.8899 23.2472 85.6229 22.983 84.5376 22.4545C83.4524 21.9205 82.6087 21.1761 82.0064 20.2216C81.4041 19.267 81.103 18.1534 81.103 16.8807V5.54545H84.7933V16.5653C84.7933 17.2301 84.9382 17.821 85.228 18.3381C85.5234 18.8551 85.9382 19.2614 86.4723 19.5568C87.0064 19.8523 87.6286 20 88.3388 20C89.0547 20 89.6768 19.8523 90.2053 19.5568C90.7393 19.2614 91.1513 18.8551 91.4411 18.3381C91.7365 17.821 91.8842 17.2301 91.8842 16.5653V5.54545ZM98.6108 23V5.54545H105.599C106.884 5.54545 107.955 5.7358 108.812 6.11648C109.67 6.49716 110.315 7.02557 110.747 7.7017C111.179 8.37216 111.395 9.14489 111.395 10.0199C111.395 10.7017 111.259 11.3011 110.986 11.8182C110.713 12.3295 110.338 12.75 109.861 13.0795C109.389 13.4034 108.849 13.6335 108.241 13.7699V13.9403C108.906 13.9687 109.528 14.1562 110.108 14.5028C110.693 14.8494 111.168 15.3352 111.531 15.9602C111.895 16.5795 112.077 17.3182 112.077 18.1761C112.077 19.1023 111.847 19.929 111.386 20.6562C110.932 21.3778 110.259 21.9489 109.366 22.3693C108.474 22.7898 107.375 23 106.068 23H98.6108ZM102.301 19.983H105.31C106.338 19.983 107.088 19.7869 107.56 19.3949C108.031 18.9972 108.267 18.4687 108.267 17.8097C108.267 17.3267 108.151 16.9006 107.918 16.5312C107.685 16.1619 107.352 15.8722 106.92 15.6619C106.494 15.4517 105.986 15.3466 105.395 15.3466H102.301V19.983ZM102.301 12.8494H105.037C105.543 12.8494 105.991 12.7614 106.384 12.5852C106.781 12.4034 107.094 12.1477 107.321 11.8182C107.554 11.4886 107.67 11.0938 107.67 10.6335C107.67 10.0028 107.446 9.49432 106.997 9.10795C106.554 8.72159 105.923 8.52841 105.105 8.52841H102.301V12.8494ZM114.478 23V5.54545H126.239V8.58807H118.168V12.7472H125.634V15.7898H118.168V19.9574H126.273V23H114.478Z" fill="#F8931A"/>
</svg>
