<svg xmlns="http://www.w3.org/2000/svg" width="265" height="265" viewBox="0 0 212 265"><g fill="none"><path fill="#46beae" d="M98.8 264.5c-42.5-1.9-82-31.8-94-72.4-9.4-31.5-4.4-61.7 10.7-90.4 11-21 27-38 43.5-54.5 14.4-14.4 29.6-28 42.9-43.6 2.1-2.4 4-5.2 7.4-1.1 16.8 20 37 37 54.8 56a180 180 0 0 1 40 59.7c19.3 52 3 108.3-50 135.6a98 98 0 0 1-55.3 10.7"/><path fill="#fff" d="M150.8 143.2c1.6-11.2-6.1-23-21-28.2l3.8-15.9-11.8-3-3.8 15.4-9.5-2.2 3.8-15.5-11.8-3-4 16-21.5-5.4-3.1 12.7s8.8 2 8.6 2.2c4.8 1.2 5.7 4.3 5.5 6.9l-13.2 53.4c-.6 1.5-2 3.7-5.4 2.9l-8.6-2.2-6 13.6 21.6 5.4-4.3 17.3 11.8 3 4.3-17.1 9.4 2.4-4.2 17 11.8 3 4.3-17.3c20.2 3.8 35.6-1.4 39.4-16.7 3-12.4.3-21.5-8.5-28.2 5.8-1.8 11.1-7.8 12.4-16.5m-24.3 37.1c-3.7 14.8-28.5 6.9-36.5 4.9l6.4-26.2c8.1 2 33.9 6 30 21.3m3.6-38.2c-3.3 13.4-24 6.6-30.7 5l5.9-23.8c6.7 1.7 28.2 4.8 24.8 18.8"/></g></svg>