<svg xmlns="http://www.w3.org/2000/svg" xmlns:xlink="http://www.w3.org/1999/xlink" width="120" height="120" fill="none"><linearGradient id="a"><stop offset="0" stop-color="#00ffa3"/><stop offset="1" stop-color="#dc1fff"/></linearGradient><linearGradient xlink:href="#a" id="f" x1="72.6" x2="33.4" y1="16.7" y2="92.4" gradientUnits="userSpaceOnUse"/><linearGradient xlink:href="#a" id="g" x1="72.6" x2="33.4" y1="16.7" y2="92.4" gradientUnits="userSpaceOnUse"/><clipPath id="b"><path d="M0 0h120v120H0z"/></clipPath><clipPath id="c"><path d="M24 32h72v56H24z"/></clipPath><g clip-path="url(#b)"><path fill="#000" d="M60 120A60 60 0 1 0 60 0a60 60 0 0 0 0 120"/><g clip-path="url(#c)"><path fill="url(#f)" d="M35.7 74.7a2 2 0 0 1 1.7-.7h57.4c1 0 1.5 1.3.8 2L84.3 87.3a2 2 0 0 1-1.7.6H25.2c-1 0-1.6-1.2-.9-2z"/><path fill="url(#f)" d="M35.7 32.7a2 2 0 0 1 1.7-.7h57.4c1 0 1.5 1.3.8 2L84.3 45.2a2 2 0 0 1-1.7.7H25.2c-1 0-1.6-1.2-.9-2z"/><path fill="url(#g)" d="M84.3 53.6a2 2 0 0 0-1.7-.7H25.2c-1 0-1.6 1.2-.9 2L35.7 66q.6.7 1.7.7h57.4c1 0 1.5-1.3.8-2z"/></g></g></svg>