<svg width="119" height="119" viewBox="0 0 119 119" fill="none" xmlns="http://www.w3.org/2000/svg">
<path d="M116.617 106.934C115.857 103.592 114.268 100.494 111.996 97.9268C109.724 95.3596 106.843 93.4055 103.617 92.2443C108.279 88.53 107.777 83.8871 107.777 79.8571C107.777 76.9019 106.603 74.0676 104.514 71.9779C102.424 69.8883 99.5897 68.7143 96.6344 68.7143C93.6791 68.7143 90.8449 69.8883 88.7552 71.9779C86.6655 74.0676 85.4916 76.9019 85.4916 79.8571C85.4916 84.0171 84.9901 88.4743 89.633 92.2257C85.5364 93.6954 82.0206 96.4429 79.6044 100.063C78.3462 97.4103 76.5762 95.0326 74.3963 93.0661C72.2163 91.0997 69.6693 89.5834 66.9016 88.6043C72.863 84.37 72.473 78.6871 72.473 74.2857C72.473 70.8379 71.1034 67.5313 68.6654 65.0933C66.2274 62.6553 62.9208 61.2857 59.473 61.2857C56.0252 61.2857 52.7186 62.6553 50.2806 65.0933C47.8426 67.5313 46.473 70.8379 46.473 74.2857C46.473 78.4086 45.8416 84.24 52.0444 88.6043C49.287 89.5961 46.7523 91.1219 44.5853 93.0945C42.4184 95.0671 40.6617 97.4477 39.4158 100.1C37.0105 96.4658 33.4917 93.7094 29.3873 92.2443C34.0487 88.53 33.5473 83.8871 33.5473 79.8571C33.5473 76.892 32.3694 74.0483 30.2727 71.9517C28.1761 69.855 25.3324 68.6771 22.3673 68.6771C19.4022 68.6771 16.5585 69.855 14.4618 71.9517C12.3652 74.0483 11.1873 76.892 11.1873 79.8571C11.1873 84.0914 10.7044 88.4743 15.3101 92.2257C12.0825 93.3886 9.19967 95.3456 6.92767 97.9162C4.65567 100.487 3.06765 103.588 2.31013 106.934L0.0444188 116.591C-0.063941 117.084 0.0277999 117.599 0.29946 118.024C0.57112 118.449 1.00045 118.749 1.49299 118.857C1.98554 118.965 2.50095 118.874 2.92586 118.602C3.35076 118.33 3.65034 117.901 3.7587 117.409L5.93156 107.714C6.73948 104.272 8.61136 101.172 11.2814 98.8534C13.9514 96.5353 17.2839 95.1173 20.8056 94.8007C24.3273 94.4841 27.8593 95.285 30.9 97.0897C33.9406 98.8944 36.3355 101.611 37.7444 104.854C37.6144 105.43 38.1344 102.793 35.3673 116.629C35.2688 117.121 35.37 117.633 35.6486 118.051C35.9272 118.468 36.3604 118.759 36.853 118.857C37.3455 118.956 37.857 118.854 38.275 118.576C38.6929 118.297 38.9831 117.864 39.0816 117.371L41.3101 105.857C42.1972 101.698 44.4849 97.9695 47.7907 95.2944C51.0966 92.6193 55.2204 91.1598 59.473 91.1598C63.7256 91.1598 67.8494 92.6193 71.1553 95.2944C74.4611 97.9695 76.7487 101.698 77.6358 105.857L79.9016 117.371C80.0001 117.864 80.2902 118.297 80.7081 118.576C81.1261 118.854 81.6376 118.956 82.1301 118.857C82.6227 118.759 83.0559 118.468 83.3345 118.051C83.6132 117.633 83.7144 117.121 83.6158 116.629C80.793 102.533 81.3501 105.356 81.2573 104.873C87.7201 89.83 109.486 92.1329 113.052 107.751L115.28 117.409C115.401 117.876 115.699 118.277 116.111 118.529C116.523 118.78 117.016 118.861 117.487 118.755C117.958 118.649 118.368 118.364 118.632 117.96C118.896 117.556 118.993 117.065 118.902 116.591L116.617 106.934ZM14.9016 83.5714V79.8571C14.9016 77.887 15.6842 75.9975 17.0773 74.6043C18.4705 73.2112 20.36 72.4286 22.3301 72.4286C24.3003 72.4286 26.1898 73.2112 27.5829 74.6043C28.9761 75.9975 29.7587 77.887 29.7587 79.8571V83.5714C29.7587 85.5416 28.9761 87.4311 27.5829 88.8242C26.1898 90.2173 24.3003 91 22.3301 91C20.36 91 18.4705 90.2173 17.0773 88.8242C15.6842 87.4311 14.9016 85.5416 14.9016 83.5714ZM50.1873 78V74.2857C50.1873 71.823 51.1656 69.4611 52.907 67.7197C54.6484 65.9783 57.0103 65 59.473 65C61.9357 65 64.2976 65.9783 66.039 67.7197C67.7804 69.4611 68.7587 71.823 68.7587 74.2857V78C68.7587 80.4627 67.7804 82.8246 66.039 84.566C64.2976 86.3074 61.9357 87.2857 59.473 87.2857C57.0103 87.2857 54.6484 86.3074 52.907 84.566C51.1656 82.8246 50.1873 80.4627 50.1873 78ZM89.1873 83.5714V79.8571C89.1873 77.887 89.9699 75.9975 91.3631 74.6043C92.7562 73.2112 94.6457 72.4286 96.6158 72.4286C98.586 72.4286 100.476 73.2112 101.869 74.6043C103.262 75.9975 104.044 77.887 104.044 79.8571V83.5714C104.044 85.5416 103.262 87.4311 101.869 88.8242C100.476 90.2173 98.586 91 96.6158 91C94.6457 91 92.7562 90.2173 91.3631 88.8242C89.9699 87.4311 89.1873 85.5416 89.1873 83.5714Z" fill="#E6E6E6" fill-opacity="0.5"/>
<path d="M111.473 0H7.473C5.50283 0 3.61334 0.782651 2.22021 2.17578C0.827084 3.56891 0.0444336 5.45839 0.0444336 7.42857L0.0444336 33.4286C0.0444336 35.3988 0.827084 37.2882 2.22021 38.6814C3.61334 40.0745 5.50283 40.8571 7.473 40.8571H50.9673L57.8573 52.9286C58.0193 53.2144 58.2542 53.4521 58.538 53.6175C58.8218 53.7829 59.1445 53.87 59.473 53.87C59.8015 53.87 60.1242 53.7829 60.408 53.6175C60.6919 53.4521 60.9267 53.2144 61.0887 52.9286L67.9787 40.8571H111.473C113.443 40.8571 115.333 40.0745 116.726 38.6814C118.119 37.2882 118.902 35.3988 118.902 33.4286V7.42857C118.902 5.45839 118.119 3.56891 116.726 2.17578C115.333 0.782651 113.443 0 111.473 0ZM115.187 33.4286C115.187 34.4137 114.796 35.3584 114.099 36.055C113.403 36.7515 112.458 37.1429 111.473 37.1429H66.9016C65.453 37.1429 65.7316 37.31 59.473 48.2857C53.2144 37.3471 53.493 37.1429 52.0444 37.1429H7.473C6.48792 37.1429 5.54317 36.7515 4.84661 36.055C4.15004 35.3584 3.75872 34.4137 3.75872 33.4286V7.42857C3.75872 6.44348 4.15004 5.49874 4.84661 4.80218C5.54317 4.10561 6.48792 3.71429 7.473 3.71429H111.473C112.458 3.71429 113.403 4.10561 114.099 4.80218C114.796 5.49874 115.187 6.44348 115.187 7.42857V33.4286Z" fill="#E6E6E6" fill-opacity="0.5"/>
</svg>
