<svg viewBox="0 0 36 36" fill="none" xmlns="http://www.w3.org/2000/svg">
  <path fill-rule="evenodd" clip-rule="evenodd" d="M18 36C27.9411 36 36 27.9411 36 18C36 8.05888 27.9411 0 18 0C8.05888 0 0 8.05888 0 18C0 27.9411 8.05888 36 18 36ZM3.79975 9.77472C2.32541 12.2837 1.58824 15.0254 1.58824 18C1.58824 20.9616 2.31894 23.7034 3.78035 26.2253C5.25469 28.7343 7.24635 30.7259 9.75532 32.2003C12.2772 33.6746 15.0254 34.4118 18 34.4118C20.9616 34.4118 23.6969 33.6811 26.2059 32.2197C28.7278 30.7453 30.7259 28.7537 32.2003 26.2447C33.6746 23.7228 34.4118 20.9746 34.4118 18C34.4118 15.0384 33.6746 12.3031 32.2003 9.79412C30.7388 7.27222 28.7472 5.27409 26.2253 3.79975C23.7163 2.32541 20.9746 1.58824 18 1.58824C15.0384 1.58824 12.2966 2.32541 9.77472 3.79975C7.26575 5.26116 5.27409 7.25282 3.79975 9.77472ZM15.8079 15.7691C15.213 16.364 14.9155 17.1076 14.9155 18C14.9155 18.8794 15.213 19.6166 15.8079 20.2115C16.4157 20.8064 17.1464 21.1039 18 21.1039C18.8665 21.1039 19.5972 20.8064 20.1921 20.2115C20.8 19.6037 21.1039 18.8665 21.1039 18C21.1039 17.1335 20.8064 16.3963 20.2115 15.7885C19.6166 15.1677 18.8794 14.8573 18 14.8573C17.1335 14.8573 16.4028 15.1612 15.8079 15.7691ZM5.56508 25.1777C4.2718 22.9533 3.62516 20.5607 3.62516 18C3.62516 15.4652 4.2524 13.0985 5.50688 10.8999C6.7743 8.68836 8.52023 6.92303 10.7447 5.60388C12.9691 4.28473 15.3876 3.62516 18 3.62516C20.5866 3.62516 22.9921 4.27826 25.2165 5.58448C27.4539 6.8907 29.2063 8.64956 30.4737 10.8611C31.7541 13.0597 32.3942 15.4393 32.3942 18C32.3942 20.5866 31.7411 22.9856 30.4349 25.1971C29.1416 27.4086 27.3892 29.161 25.1777 30.4543C22.9662 31.7347 20.5736 32.3748 18 32.3748C15.4522 32.3748 13.0661 31.7282 10.8417 30.4349C8.61723 29.1416 6.85836 27.3892 5.56508 25.1777Z" fill="#E6E6E6"/>
</svg>
