<svg width="118" height="119" viewBox="0 0 118 119" fill="none" xmlns="http://www.w3.org/2000/svg">
<path d="M104.204 40.3354C104.093 38.034 103.519 35.7787 102.517 33.7039C101.514 31.6292 100.105 29.7774 98.3717 28.2592C96.6385 26.741 94.6174 25.5873 92.4288 24.867C90.2402 24.1468 87.9289 23.8746 85.6329 24.0668C83.6404 16.6123 79.0564 10.112 72.7036 5.7324C66.3507 1.35284 58.6449 -0.619157 50.9693 0.170329C43.2936 0.959815 36.1505 4.4591 30.8222 10.0401C25.4938 15.6212 22.329 22.9186 21.8957 30.6226C15.9425 31.0894 10.3836 33.7815 6.32594 38.1626C2.26831 42.5438 0.00973384 48.2925 0 54.264C0 66.224 9.04428 77.9611 25.2386 77.9611V109.533C25.2386 121.883 88.3814 121.901 88.3814 109.533V77.9611H98.0014C102.59 77.9755 107.033 76.356 110.536 73.3926C114.039 70.4293 116.373 66.3158 117.119 61.7886C117.865 57.2615 116.976 52.6165 114.609 48.6856C112.243 44.7547 108.554 41.7946 104.204 40.3354ZM56.81 63.104C53.1369 63.104 49.5463 62.0148 46.4923 59.9741C43.4382 57.9335 41.0579 55.033 39.6522 51.6395C38.2466 48.2461 37.8788 44.512 38.5954 40.9095C39.312 37.3069 41.0808 33.9978 43.678 31.4006C46.2753 28.8033 49.5844 27.0346 53.1869 26.318C56.7894 25.6014 60.5235 25.9692 63.917 27.3748C67.3105 28.7804 70.2109 31.1608 72.2516 34.2148C74.2922 37.2689 75.3814 40.8595 75.3814 44.5326C75.3814 46.9714 74.9011 49.3863 73.9678 51.6395C73.0345 53.8927 71.6665 55.94 69.942 57.6645C68.2175 59.3891 66.1702 60.757 63.917 61.6903C61.6638 62.6236 59.2488 63.104 56.81 63.104ZM41.3029 60.504C45.4602 64.5318 51.0215 66.784 56.81 66.784C62.5985 66.784 68.1598 64.5318 72.3171 60.504C82.4757 62.1011 84.6671 64.534 84.6671 64.9611C84.6671 66.5769 74.8986 70.5326 56.81 70.5326C38.7214 70.5326 28.9529 66.5769 28.9529 64.9611C28.9529 64.534 31.1443 62.1011 41.3029 60.504ZM84.6671 94.6754C84.6671 96.2911 74.8986 100.247 56.81 100.247C38.7214 100.247 28.9529 96.2911 28.9529 94.6754V84.5354C40.0957 90.5711 73.5243 90.5897 84.6671 84.5354V94.6754ZM84.6671 79.8183C84.6671 81.434 74.8986 85.3897 56.81 85.3897C38.7214 85.3897 28.9529 81.434 28.9529 79.8183V69.6783C40.0957 75.714 73.5243 75.7326 84.6671 69.6783V79.8183ZM56.81 115.104C38.7214 115.104 28.9529 111.148 28.9529 109.533V99.3926C40.0957 105.428 73.5243 105.447 84.6671 99.3926V109.533C84.6671 111.148 74.8986 115.104 56.81 115.104ZM98.0014 74.2468H88.3814V64.9611C88.3814 60.764 81.7328 58.4611 75.1029 57.2168C77.4283 53.8749 78.7938 49.9598 79.0512 45.8965C79.3085 41.8333 78.4478 37.7772 76.5625 34.1685C74.6773 30.5599 71.8395 27.5367 68.3572 25.4272C64.875 23.3176 60.8814 22.2022 56.81 22.2022C52.7386 22.2022 48.745 23.3176 45.2628 25.4272C41.7805 27.5367 38.9427 30.5599 37.0575 34.1685C35.1722 37.7772 34.3115 41.8333 34.5688 45.8965C34.8262 49.9598 36.1917 53.8749 38.5171 57.2168C31.8871 58.4611 25.2386 60.764 25.2386 64.9611V74.2468H23.7157C21.039 74.3284 18.3732 73.8717 15.8764 72.9037C13.3795 71.9357 11.1025 70.4762 9.18029 68.6117C7.25809 66.7472 5.72986 64.5157 4.68625 62.0495C3.64264 59.5833 3.10489 56.9326 3.10489 54.2547C3.10489 51.5768 3.64264 48.9261 4.68625 46.4599C5.72986 43.9937 7.25809 41.7622 9.18029 39.8977C11.1025 38.0332 13.3795 36.5737 15.8764 35.6057C18.3732 34.6377 21.039 34.181 23.7157 34.2626C24.2083 34.2626 24.6806 34.0669 25.0289 33.7186C25.3772 33.3703 25.5729 32.898 25.5729 32.4054C25.5721 25.2992 28.2049 18.4448 32.9628 13.1664C37.7207 7.88804 44.2659 4.56027 51.3341 3.82597C58.4023 3.09167 65.4919 5.00296 71.2332 9.19059C76.9745 13.3782 80.9601 19.545 82.42 26.4997C82.5187 26.9747 82.7994 27.3922 83.202 27.6629C83.6046 27.9336 84.0971 28.036 84.5743 27.9483C93.86 26.2397 101.177 34.2997 100.49 41.524C100.444 41.9647 100.558 42.4072 100.81 42.7716C101.062 43.136 101.436 43.3983 101.864 43.5111C105.537 44.4647 108.737 46.7225 110.866 49.8629C112.995 53.0033 113.909 56.8114 113.436 60.576C112.963 64.3406 111.135 67.8043 108.295 70.3201C105.455 72.8359 101.796 74.2317 98.0014 74.2468Z" fill="#E6E6E6" fill-opacity="0.5"/>
<path d="M56.8105 31.5325C56.6248 31.5325 56.8105 31.8668 56.6991 29.5268C56.6939 29.161 56.5809 28.805 56.3742 28.5033C56.1675 28.2015 55.8763 27.9676 55.5371 27.8307C55.1979 27.6939 54.8259 27.6602 54.4676 27.734C54.1094 27.8077 53.7809 27.9856 53.5234 28.2453L49.8091 31.9596C49.635 32.1323 49.4969 32.3377 49.4026 32.564C49.3083 32.7903 49.2598 33.033 49.2598 33.2782C49.2598 33.5234 49.3083 33.7661 49.4026 33.9924C49.4969 34.2187 49.635 34.4241 49.8091 34.5968C53.8762 38.6453 53.932 38.961 54.9534 38.961C55.4459 38.961 55.9183 38.7654 56.2666 38.4171C56.6149 38.0688 56.8105 37.5964 56.8105 37.1039V35.2468C58.4917 35.2443 60.1421 35.6982 61.5855 36.5603C63.0289 37.4223 64.2112 38.66 65.0062 40.1414C65.8012 41.6228 66.1791 43.2922 66.0996 44.9715C66.0201 46.6509 65.4862 48.2771 64.5548 49.6768C64.3659 49.9563 64.2567 50.282 64.2389 50.6189C64.2211 50.9558 64.2954 51.2912 64.4539 51.5891C64.6124 51.8869 64.849 52.136 65.1384 52.3095C65.4277 52.483 65.7589 52.5744 66.0962 52.5739C68.5477 52.5739 69.8105 47.0025 69.8105 44.5325C69.8105 41.0847 68.4409 37.7781 66.0029 35.3401C63.565 32.9021 60.2583 31.5325 56.8105 31.5325Z" fill="#E6E6E6" fill-opacity="0.5"/>
<path d="M59.9861 50.5311C59.7199 50.2609 59.3773 50.0787 59.0045 50.009C58.6317 49.9393 58.2465 49.9854 57.9007 50.1411C57.5548 50.2969 57.265 50.5547 57.0701 50.8801C56.8751 51.2055 56.7845 51.5827 56.8104 51.9611V53.8182C55.1276 53.8241 53.4748 53.3726 52.0288 52.5119C50.5827 51.6512 49.3977 50.4138 48.6005 48.9318C47.8032 47.4498 47.4237 45.7791 47.5024 44.0981C47.5812 42.4172 48.1152 40.7892 49.0475 39.3882C49.1841 39.1858 49.2794 38.9585 49.3282 38.7192C49.3769 38.4799 49.378 38.2334 49.3314 37.9937C49.2849 37.754 49.1915 37.5258 49.0568 37.3221C48.922 37.1185 48.7485 36.9434 48.5461 36.8068C48.3437 36.6702 48.1163 36.5749 47.877 36.5261C47.6378 36.4774 47.3912 36.4763 47.1515 36.5229C46.9118 36.5694 46.6836 36.6628 46.48 36.7975C46.2763 36.9323 46.1012 37.1058 45.9646 37.3082C44.6545 39.2682 43.902 41.5476 43.7877 43.9024C43.6735 46.2572 44.2017 48.5988 45.3159 50.6764C46.4301 52.7541 48.0883 54.4896 50.113 55.6973C52.1378 56.905 54.4528 57.5394 56.8104 57.5325C56.9961 57.5325 56.8104 57.1982 56.9218 59.3897C56.9218 59.8822 57.1175 60.3546 57.4657 60.7029C57.814 61.0511 58.2864 61.2468 58.7789 61.2468C59.7818 61.2468 59.8375 60.9682 63.8118 56.9939C63.9859 56.8213 64.124 56.6159 64.2183 56.3896C64.3126 56.1633 64.3611 55.9205 64.3611 55.6754C64.3611 55.4302 64.3126 55.1875 64.2183 54.9612C64.124 54.7348 63.9859 54.5295 63.8118 54.3568L59.9861 50.5311Z" fill="#E6E6E6" fill-opacity="0.5"/>
</svg>
