<?xml version="1.0" encoding="UTF-8" standalone="no"?>
<svg
   xmlns:dc="http://purl.org/dc/elements/1.1/"
   xmlns:cc="http://creativecommons.org/ns#"
   xmlns:rdf="http://www.w3.org/1999/02/22-rdf-syntax-ns#"
   xmlns:svg="http://www.w3.org/2000/svg"
   xmlns="http://www.w3.org/2000/svg"
   viewBox="0 0 1326.6667 370.76001"
   height="370.76001"
   width="1326.6667"
   xml:space="preserve"
   id="svg2"
   version="1.1"><metadata
     id="metadata8"><rdf:RDF><cc:Work
         rdf:about=""><dc:format>image/svg+xml</dc:format><dc:type
           rdf:resource="http://purl.org/dc/dcmitype/StillImage" /></cc:Work></rdf:RDF></metadata><defs
     id="defs6"><clipPath
       id="clipPath20"
       clipPathUnits="userSpaceOnUse"><path
         id="path18"
         d="m 824.48,1471.45 c 42.012,37.8 63.149,97.51 63.149,179.56 0,81.86 -21.824,138.05 -65.301,168.61 -43.367,30.43 -119.457,45.71 -228.515,45.71 H 339.441 v -450.37 h 248.11 c 115.918,0 194.828,18.89 236.929,56.49 z m 409.06,180.64 c 0,-243.7 -96.44,-401.12 -289.306,-472.1 L 1329.38,636.121 H 911.52 L 574.434,1121.14 H 339.441 V 636.121 H 0 V 2156.89 h 576.48 c 236.454,0 405.145,-39.85 505.89,-119.71 100.75,-79.71 151.17,-208.16 151.17,-385.09 z" /></clipPath><linearGradient
       id="linearGradient28"
       spreadMethod="pad"
       gradientTransform="matrix(2790.33,2807.08,2807.08,-2790.33,-424.565,300.71)"
       gradientUnits="userSpaceOnUse"
       y2="0"
       x2="1"
       y1="0"
       x1="0"><stop
         id="stop22"
         offset="0"
         style="stop-opacity:1;stop-color:#ec2076" /><stop
         id="stop24"
         offset="0.995707"
         style="stop-opacity:1;stop-color:#f68221" /><stop
         id="stop26"
         offset="1"
         style="stop-opacity:1;stop-color:#f68221" /></linearGradient><clipPath
       id="clipPath38"
       clipPathUnits="userSpaceOnUse"><path
         id="path36"
         d="m 2678.28,2156.89 v -302.44 h -757.22 v -313.28 h 681.03 V 1251.75 H 1921.06 V 936.211 h 781.11 V 636.121 H 1581.8 V 2156.89 Z" /></clipPath><linearGradient
       id="linearGradient46"
       spreadMethod="pad"
       gradientTransform="matrix(2790.37,2807.12,2807.12,-2790.37,318.496,-437.91)"
       gradientUnits="userSpaceOnUse"
       y2="0"
       x2="1"
       y1="0"
       x1="0"><stop
         id="stop40"
         offset="0"
         style="stop-opacity:1;stop-color:#ec2076" /><stop
         id="stop42"
         offset="0.997699"
         style="stop-opacity:1;stop-color:#f68221" /><stop
         id="stop44"
         offset="1"
         style="stop-opacity:1;stop-color:#f68221" /></linearGradient><clipPath
       id="clipPath66"
       clipPathUnits="userSpaceOnUse"><path
         id="path64"
         d="m 2705.19,2482.64 c 0,-27.6 -22.61,-50.13 -50.11,-50.13 L 53.9492,2432.32 c -27.6015,0 -33.3789,15.07 -12.914,33.59 L 353.547,2747.2 c 20.461,18.4 59.723,33.48 87.332,33.48 H 2655.08 c 27.5,0 50.11,-22.54 50.11,-50.14 z" /></clipPath><linearGradient
       id="linearGradient74"
       spreadMethod="pad"
       gradientTransform="matrix(2732.06,2748.46,2748.46,-2732.06,-555.229,524.15)"
       gradientUnits="userSpaceOnUse"
       y2="0"
       x2="1"
       y1="0"
       x1="0"><stop
         id="stop68"
         offset="0"
         style="stop-opacity:1;stop-color:#ec2076" /><stop
         id="stop70"
         offset="0.995707"
         style="stop-opacity:1;stop-color:#f68221" /><stop
         id="stop72"
         offset="1"
         style="stop-opacity:1;stop-color:#f68221" /></linearGradient><clipPath
       id="clipPath84"
       clipPathUnits="userSpaceOnUse"><path
         id="path82"
         d="m 3.82031,298.109 c 0,27.539 22.52739,50.129 50.12889,50.129 L 2655.08,348.34 c 27.5,0 33.38,-15.059 12.82,-33.559 L 2355.57,33.6016 C 2335,15.1016 2295.65,0 2268.13,0 H 53.9492 C 26.3477,0 3.82031,22.6094 3.82031,50.1211 Z" /></clipPath><linearGradient
       id="linearGradient92"
       spreadMethod="pad"
       gradientTransform="matrix(2732.03,2748.43,2748.43,-2732.03,471.929,-552.45)"
       gradientUnits="userSpaceOnUse"
       y2="0"
       x2="1"
       y1="0"
       x1="0"><stop
         id="stop86"
         offset="0"
         style="stop-opacity:1;stop-color:#ec2076" /><stop
         id="stop88"
         offset="0.995707"
         style="stop-opacity:1;stop-color:#f68221" /><stop
         id="stop90"
         offset="1"
         style="stop-opacity:1;stop-color:#f68221" /></linearGradient></defs><g
     transform="matrix(1.3333333,0,0,-1.3333333,0,370.76)"
     id="g10"><g
       transform="scale(0.1)"
       id="g12"><g
         id="g14"><g
           clip-path="url(#clipPath20)"
           id="g16"><path
             id="path30"
             style="fill:url(#linearGradient28);fill-opacity:1;fill-rule:nonzero;stroke:none"
             d="m 824.48,1471.45 c 42.012,37.8 63.149,97.51 63.149,179.56 0,81.86 -21.824,138.05 -65.301,168.61 -43.367,30.43 -119.457,45.71 -228.515,45.71 H 339.441 v -450.37 h 248.11 c 115.918,0 194.828,18.89 236.929,56.49 z m 409.06,180.64 c 0,-243.7 -96.44,-401.12 -289.306,-472.1 L 1329.38,636.121 H 911.52 L 574.434,1121.14 H 339.441 V 636.121 H 0 V 2156.89 h 576.48 c 236.454,0 405.145,-39.85 505.89,-119.71 100.75,-79.71 151.17,-208.16 151.17,-385.09" /></g></g><g
         id="g32"><g
           clip-path="url(#clipPath38)"
           id="g34"><path
             id="path48"
             style="fill:url(#linearGradient46);fill-opacity:1;fill-rule:nonzero;stroke:none"
             d="m 2678.28,2156.89 v -302.44 h -757.22 v -313.28 h 681.03 V 1251.75 H 1921.06 V 936.211 h 781.11 V 636.121 H 1581.8 V 2156.89 h 1096.48" /></g></g><path
         id="path50"
         style="fill:#181818;fill-opacity:1;fill-rule:nonzero;stroke:none"
         d="M 3849.36,636.121 H 3562.19 L 2950.76,2156.89 h 287.26 l 467.79,-1135.71 467.81,1135.71 h 287.17 L 3849.36,636.121" /><path
         id="path52"
         style="fill:#181818;fill-opacity:1;fill-rule:nonzero;stroke:none"
         d="m 5463.67,1219.07 -276.21,626.57 -276.4,-626.57 z M 4806.61,982.02 4654.35,636.121 h -274.14 l 670.16,1520.769 h 274.16 L 5994.62,636.121 H 5720.46 L 5568.23,982.02 h -761.62" /><path
         id="path54"
         style="fill:#181818;fill-opacity:1;fill-rule:nonzero;stroke:none"
         d="m 6510.1,984.07 c 69.62,-81.269 163.97,-121.82 282.96,-121.82 118.77,0 213.24,40.551 282.66,121.82 69.72,81.34 104.56,191.5 104.56,330.84 v 841.98 h 256.81 v -852.86 c 0,-219.14 -60.3,-387.71 -180.65,-505.889 -120.4,-118.379 -274.92,-177.321 -463.38,-177.321 -188.68,0 -343.27,58.942 -463.48,177.321 -120.45,118.179 -180.76,286.749 -180.76,505.889 v 852.86 h 256.81 v -841.98 c 0,-139.34 34.85,-249.5 104.47,-330.84" /><path
         id="path56"
         style="fill:#181818;fill-opacity:1;fill-rule:nonzero;stroke:none"
         d="M 7839.38,636.121 V 2156.89 h 256.84 V 879.699 h 694.04 V 636.121 h -950.88" /><path
         id="path58"
         style="fill:#181818;fill-opacity:1;fill-rule:nonzero;stroke:none"
         d="M 9488.74,1921.84 V 636.121 H 9232.15 V 1921.84 h -461.38 v 235.05 H 9950 v -235.05 h -461.26" /><g
         id="g60"><g
           clip-path="url(#clipPath66)"
           id="g62"><path
             id="path76"
             style="fill:url(#linearGradient74);fill-opacity:1;fill-rule:nonzero;stroke:none"
             d="m 2705.19,2482.64 c 0,-27.6 -22.61,-50.13 -50.11,-50.13 L 53.9492,2432.32 c -27.6015,0 -33.3789,15.07 -12.914,33.59 L 353.547,2747.2 c 20.461,18.4 59.723,33.48 87.332,33.48 H 2655.08 c 27.5,0 50.11,-22.54 50.11,-50.14 v -247.9" /></g></g><g
         id="g78"><g
           clip-path="url(#clipPath84)"
           id="g80"><path
             id="path94"
             style="fill:url(#linearGradient92);fill-opacity:1;fill-rule:nonzero;stroke:none"
             d="m 3.82031,298.109 c 0,27.539 22.52739,50.129 50.12889,50.129 L 2655.08,348.34 c 27.5,0 33.38,-15.059 12.82,-33.559 L 2355.57,33.6016 C 2335,15.1016 2295.65,0 2268.13,0 H 53.9492 C 26.3477,0 3.82031,22.6094 3.82031,50.1211 V 298.109" /></g></g></g></g></svg>